<svg width="135" height="135" viewBox="0 0 135 135" fill="none" xmlns="http://www.w3.org/2000/svg">
<path d="M135 105.248H0V105.315H135V105.248Z" fill="#EBEBEB"/>
<path d="M63.99 93.206H11.8557C11.4472 93.2053 11.0558 93.0425 10.7672 92.7535C10.4787 92.4644 10.3166 92.0727 10.3167 91.6643V18.3782C10.3202 17.9721 10.4838 17.5839 10.772 17.2977C11.0601 17.0116 11.4496 16.8507 11.8557 16.85H63.99C64.3988 16.85 64.791 17.0124 65.0801 17.3016C65.3692 17.5907 65.5317 17.9828 65.5317 18.3917V91.6643C65.5317 92.0732 65.3692 92.4653 65.0801 92.7544C64.791 93.0436 64.3988 93.206 63.99 93.206ZM11.8557 16.904C11.4651 16.9047 11.0909 17.0604 10.815 17.3367C10.5391 17.6131 10.3841 17.9877 10.3842 18.3782V91.6643C10.3841 92.0548 10.5391 92.4294 10.815 92.7058C11.0909 92.9822 11.4651 93.1378 11.8557 93.1385H63.99C64.3807 93.1378 64.7553 92.9822 65.0316 92.7059C65.3079 92.4296 65.4634 92.0551 65.4642 91.6643V18.3782C65.4634 17.9874 65.3079 17.6129 65.0316 17.3366C64.7553 17.0603 64.3807 16.9047 63.99 16.904H11.8557Z" fill="#EBEBEB"/>
<path d="M122.394 93.206H70.2568C69.8481 93.2053 69.4564 93.0426 69.1674 92.7537C68.8785 92.4647 68.7158 92.073 68.7151 91.6643V18.3782C68.7193 17.9719 68.8836 17.5836 69.1722 17.2976C69.4608 17.0115 69.8504 16.8507 70.2568 16.85H122.394C122.799 16.8514 123.188 17.0126 123.476 17.2987C123.763 17.5847 123.927 17.9726 123.93 18.3782V91.6643C123.93 92.0723 123.768 92.4636 123.48 92.7525C123.192 93.0415 122.802 93.2046 122.394 93.206ZM70.2568 16.904C69.866 16.9047 69.4915 17.0603 69.2152 17.3366C68.9388 17.6129 68.7833 17.9874 68.7826 18.3782V91.6643C68.7833 92.0551 68.9388 92.4296 69.2152 92.7059C69.4915 92.9822 69.866 93.1378 70.2568 93.1385H122.394C122.785 93.1378 123.159 92.9822 123.435 92.7059C123.712 92.4296 123.867 92.0551 123.868 91.6643V18.3782C123.867 17.9874 123.712 17.6129 123.435 17.3366C123.159 17.0603 122.785 16.9047 122.394 16.904H70.2568Z" fill="#EBEBEB"/>
<path d="M121.473 107.818H112.949V107.886H121.473V107.818Z" fill="#EBEBEB"/>
<path d="M90.5417 107.087H81.521V107.154H90.5417V107.087Z" fill="#EBEBEB"/>
<path d="M123.935 110.327H107.079V110.394H123.935V110.327Z" fill="#EBEBEB"/>
<path d="M19.3564 109.873H14.1643V109.941H19.3564V109.873Z" fill="#EBEBEB"/>
<path d="M29.9403 109.873H21.762V109.941H29.9403V109.873Z" fill="#EBEBEB"/>
<path d="M65.9177 108.734H51.1865V108.801H65.9177V108.734Z" fill="#EBEBEB"/>
<path d="M101.153 105.248V58.3328H89.3916V105.248H101.153Z" fill="#F0F0F0"/>
<path d="M100.508 70.0481V59.7017H90.037V70.0481H100.508Z" fill="#F5F5F5"/>
<path d="M97.5915 59.5667H92.9556C92.9556 59.8531 93.0694 60.1278 93.2719 60.3304C93.4744 60.5329 93.7491 60.6467 94.0356 60.6467H96.525C96.8091 60.6432 97.0803 60.5278 97.2799 60.3256C97.4796 60.1235 97.5915 59.8508 97.5915 59.5667Z" fill="#E6E6E6"/>
<path d="M100.508 81.326V70.9796H90.037V81.326H100.508Z" fill="#F5F5F5"/>
<path d="M100.508 92.6012V82.2548H90.037V92.6012H100.508Z" fill="#F5F5F5"/>
<path d="M100.508 103.876V93.53H90.037V103.876H100.508Z" fill="#F5F5F5"/>
<path d="M97.5915 70.85H92.9556C92.9556 71.1364 93.0694 71.4111 93.2719 71.6137C93.4744 71.8162 93.7491 71.93 94.0356 71.93H96.525C96.8091 71.9265 97.0803 71.8111 97.2799 71.6089C97.4796 71.4068 97.5915 71.1341 97.5915 70.85Z" fill="#E6E6E6"/>
<path d="M97.5915 82.1171H92.9556C92.9556 82.4036 93.0694 82.6783 93.2719 82.8808C93.4744 83.0833 93.7491 83.1971 94.0356 83.1971H96.525C96.8091 83.1936 97.0803 83.0782 97.2799 82.8761C97.4796 82.6739 97.5915 82.4012 97.5915 82.1171Z" fill="#E6E6E6"/>
<path d="M97.5915 93.3923H92.9556C92.9556 93.6787 93.0694 93.9534 93.2719 94.156C93.4744 94.3585 93.7491 94.4723 94.0356 94.4723H96.525C96.8091 94.4688 97.0803 94.3534 97.2799 94.1513C97.4796 93.9491 97.5915 93.6764 97.5915 93.3923Z" fill="#E6E6E6"/>
<path d="M107.028 105.248V58.3328H101.153V105.248H107.028Z" fill="#F5F5F5"/>
<path d="M113.975 105.251V58.3355H102.214V105.251H113.975Z" fill="#F0F0F0"/>
<path d="M113.33 70.0481V59.7017H102.859V70.0481H113.33Z" fill="#F5F5F5"/>
<path d="M110.414 59.5667H105.778C105.778 59.8531 105.892 60.1278 106.094 60.3304C106.297 60.5329 106.571 60.6467 106.858 60.6467H109.35C109.634 60.6425 109.904 60.5268 110.103 60.3247C110.302 60.1226 110.414 59.8504 110.414 59.5667Z" fill="#E6E6E6"/>
<path d="M113.33 81.3233V70.9769H102.859V81.3233H113.33Z" fill="#F5F5F5"/>
<path d="M113.333 92.6012V82.2548H102.862V92.6012H113.333Z" fill="#F5F5F5"/>
<path d="M113.33 103.876V93.53H102.859V103.876H113.33Z" fill="#F5F5F5"/>
<path d="M110.414 70.85H105.778C105.778 71.1364 105.892 71.4111 106.094 71.6137C106.297 71.8162 106.571 71.93 106.858 71.93H109.35C109.634 71.9258 109.904 71.8101 110.103 71.608C110.302 71.4059 110.414 71.1337 110.414 70.85Z" fill="#E6E6E6"/>
<path d="M110.414 82.1171H105.778C105.778 82.4036 105.892 82.6783 106.094 82.8808C106.297 83.0833 106.571 83.1971 106.858 83.1971H109.35C109.634 83.1929 109.904 83.0772 110.103 82.8751C110.302 82.673 110.414 82.4008 110.414 82.1171Z" fill="#E6E6E6"/>
<path d="M110.414 93.3923H105.778C105.778 93.6787 105.892 93.9534 106.094 94.156C106.297 94.3585 106.571 94.4723 106.858 94.4723H109.35C109.634 94.468 109.904 94.3524 110.103 94.1503C110.302 93.9482 110.414 93.676 110.414 93.3923Z" fill="#E6E6E6"/>
<path d="M119.85 105.248V58.3328H113.975V105.248H119.85Z" fill="#F5F5F5"/>
<path d="M112.498 48.9638H109.064V58.3328H112.498V48.9638Z" fill="#E0E0E0"/>
<path d="M98.28 58.3328H111.38L113.33 43.1723H100.229L98.28 58.3328Z" fill="#E6E6E6"/>
<path d="M96.7842 58.3328H111.046L112.998 43.1723H98.7336L96.7842 58.3328Z" fill="#F0F0F0"/>
<path d="M110.006 57.1394L111.648 44.3657H99.7759L98.1316 57.1394H110.006Z" fill="white"/>
<path d="M106.975 52.9751C108.373 51.6643 108.572 49.6054 107.419 48.3763C106.267 47.1471 104.199 47.2133 102.801 48.524C101.404 49.8347 101.205 51.8937 102.358 53.1228C103.51 54.3519 105.578 54.2858 106.975 52.9751Z" fill="#E6E6E6"/>
<path d="M48.7079 105.248H85.3469L85.3469 27.8147H48.7079L48.7079 105.248Z" fill="#E6E6E6"/>
<path d="M47.8925 105.248H84.5315L84.5315 27.8147H47.8925L47.8925 105.248Z" fill="#F5F5F5"/>
<path d="M83.0708 103.606V29.4563L49.3559 29.4563L49.3559 103.606H83.0708Z" fill="white"/>
<path d="M49.9717 103.606L49.9717 29.4563H49.3561L49.3561 103.606H49.9717Z" fill="#E6E6E6"/>
<path d="M48.5 53.5052L83.9294 53.5052V51.302L48.5 51.302V53.5052Z" fill="#F5F5F5"/>
<path d="M36.4797 103.15H41.5854L41.5854 70.04H36.4797L36.4797 103.15Z" fill="#F0F0F0"/>
<path d="M15.4223 105.248H40.6052V103.15H15.4223V105.248Z" fill="#F0F0F0"/>
<path d="M36.4798 70.04H14.4424V103.15H36.4798V70.04Z" fill="#F5F5F5"/>
<path d="M34.471 74.1143H16.4485V84.9737H34.471V74.1143Z" fill="#F0F0F0"/>
<path d="M34.471 88.2164H16.4485V99.0758H34.471V88.2164Z" fill="#F0F0F0"/>
<path d="M20.1042 81.4583V77.6351C20.1042 77.2981 19.831 77.0249 19.494 77.0249H19.224C18.887 77.0249 18.6139 77.2981 18.6139 77.6351V81.4583C18.6139 81.7953 18.887 82.0685 19.224 82.0685H19.494C19.831 82.0685 20.1042 81.7953 20.1042 81.4583Z" fill="#F5F5F5"/>
<path d="M20.1016 95.5577V91.7345C20.1016 91.3975 19.8284 91.1243 19.4914 91.1243H19.2214C18.8844 91.1243 18.6112 91.3975 18.6112 91.7345V95.5577C18.6112 95.8947 18.8844 96.1679 19.2214 96.1679H19.4914C19.8284 96.1679 20.1016 95.8947 20.1016 95.5577Z" fill="#F5F5F5"/>
<path d="M36.3771 51.3371C35.8074 51.6233 34.2549 51.3155 34.7706 52.3658C35.0693 52.9146 35.425 53.4304 35.8317 53.9048C36.4095 54.6176 36.3015 55.3925 35.6184 55.6733C35.4696 55.7261 35.3386 55.8197 35.2404 55.9433C34.9272 56.3942 35.6697 56.999 36.0342 57.4499C36.3987 57.9008 36.5445 58.3436 36.2772 58.6811C36.0099 59.0186 35.3592 58.9133 34.8678 59.0267C33.6825 59.2967 34.9002 60.9167 34.776 61.7672C34.6896 62.3396 34.2225 62.5016 33.5907 62.5772C33.075 62.642 32.3865 62.6879 32.3568 63.2171C32.3325 63.6761 32.9292 64.1945 33.0858 64.6751C33.1605 64.8822 33.1888 65.1032 33.1688 65.3225C33.1487 65.5418 33.0807 65.754 32.9697 65.9441C32.8651 66.1039 32.7286 66.2404 32.5688 66.3449C32.4089 66.4495 32.2292 66.5198 32.0409 66.5516C31.455 66.6758 30.5694 66.5516 30.5262 67.2077C30.5073 67.502 30.7125 67.7639 30.5694 68.0366C30.4916 68.1501 30.3898 68.2451 30.2714 68.3151C30.1529 68.3851 30.0205 68.4283 29.8836 68.4416C29.3225 68.5271 28.7511 68.517 28.1934 68.4119C27.5049 68.285 26.4897 67.6775 26.8623 67.0943C26.9272 67.0098 27.0085 66.9392 27.1012 66.8868C27.194 66.8344 27.2964 66.8012 27.4023 66.7892C27.567 66.7541 28.0476 66.8054 28.1097 66.6947C28.1718 66.584 28.0071 66.1547 27.999 65.9981C27.9826 65.5679 28.0505 65.1387 28.1988 64.7345C28.3894 64.2067 28.6925 63.7267 29.0871 63.3278C29.2518 63.1631 29.511 63.0416 29.5434 62.8013C29.5423 62.5308 29.4468 62.2691 29.2734 62.0615C29.0034 61.6889 28.6011 61.3352 28.4634 60.9383C28.2312 60.3173 28.7928 60.1283 29.3112 59.9771C29.7837 59.8502 30.3912 59.6855 30.2427 59.1131C30.1266 58.7 29.6082 58.3625 29.4516 57.9602C29.241 57.4202 29.7513 57.4013 30.1158 57.2069C30.591 56.9558 30.7098 56.5103 30.5397 55.9433C30.2697 55.0118 28.5444 53.6942 29.4192 53.0867C29.6433 52.9328 29.8485 52.8815 29.9835 52.6493C30.1185 52.4171 30.1455 52.0931 30.3318 51.869C30.6261 51.5126 31.2363 51.4532 31.5549 51.1211C32.2083 50.4434 30.7962 49.2311 32.0949 48.9611C32.3694 48.9275 32.6297 48.8202 32.8482 48.6506C32.967 48.5399 33.0615 48.008 33.1938 47.9702C33.7851 47.8055 34.8516 48.953 35.1864 49.3067C35.5536 49.7252 37.0629 50.9942 36.3771 51.3371Z" fill="#E0E0E0"/>
<path d="M26.2386 67.1564C26.5896 66.5057 28.1286 65.8577 27.1053 65.1044C26.5562 64.731 25.9654 64.4229 25.3449 64.1864C24.4539 63.8138 24.138 62.9552 24.5889 62.2451C24.6946 62.0958 24.7605 61.922 24.7806 61.7402C24.8184 61.0841 23.8383 60.9302 23.2767 60.6926C22.7151 60.455 22.3452 60.0932 22.4046 59.5802C22.4667 59.0159 23.0877 58.7702 23.4603 58.3517C24.3621 57.3392 22.4127 56.4239 22.0752 55.487C21.8457 54.8471 22.1697 54.407 22.6854 53.9183C23.1039 53.5295 23.6871 53.0543 23.4279 52.4954C23.2065 52.0094 22.4019 51.8501 22.0077 51.4532C21.8247 51.2753 21.6792 51.0625 21.58 50.8274C21.4807 50.5922 21.4297 50.3395 21.4299 50.0843C21.4364 49.6365 21.613 49.2078 21.924 48.8855C22.3749 48.3941 23.2254 47.9756 22.9095 47.2655C22.7664 46.9523 22.4451 46.8119 22.4262 46.4555C22.4323 46.2961 22.4701 46.1396 22.5373 45.9949C22.6045 45.8503 22.6998 45.7205 22.8177 45.6131C23.2543 45.1855 23.7647 44.8406 24.3243 44.5952C24.9993 44.2982 26.2143 44.2874 26.2143 45.1163C26.1934 45.3616 26.084 45.5909 25.9065 45.7616C25.7796 45.8993 25.3287 46.1423 25.3341 46.3016C25.3395 46.4609 25.7148 46.7903 25.8039 46.9469C26.0531 47.3861 26.2222 47.866 26.3034 48.3644C26.4192 49.0245 26.4091 49.7006 26.2737 50.357C26.217 50.627 26.0523 50.9132 26.1522 51.1805C26.2927 51.4446 26.5223 51.6503 26.8002 51.761C27.2295 51.977 27.7803 52.085 28.1232 52.4009C28.6632 52.895 28.2717 53.4458 27.8883 53.9129C27.54 54.3368 27.0783 54.8903 27.5292 55.3763C27.8532 55.7273 28.4904 55.7489 28.8441 56.0648C29.3166 56.4887 28.8792 56.8262 28.6605 57.2501C28.3905 57.7901 28.5093 58.3301 28.9629 58.8053C29.7135 59.5856 31.9329 59.8853 31.4793 61.0355C31.3659 61.3325 31.2093 61.5134 31.2093 61.832C31.2093 62.1506 31.3632 62.5043 31.32 62.8499C31.2498 63.3899 30.7449 63.8381 30.6396 64.3754C30.4263 65.4743 32.3163 65.8307 31.3335 66.9242C31.104 67.1408 30.9331 67.4121 30.8367 67.7126C30.7908 67.8962 30.9906 68.501 30.8934 68.6225C30.4614 69.1625 28.9062 68.6468 28.4229 68.4902C27.8289 68.2931 25.8201 67.9313 26.2386 67.1564Z" fill="#F5F5F5"/>
<path d="M22.3074 65.6903C22.3074 65.6903 22.4937 70.04 29.6136 70.04C36.7335 70.04 36.9225 65.6903 36.9225 65.6903H22.3074Z" fill="#F0F0F0"/>
<path d="M67.5002 117.441C96.4125 117.441 119.851 116.073 119.851 114.385C119.851 112.697 96.4125 111.328 67.5002 111.328C38.5879 111.328 15.1499 112.697 15.1499 114.385C15.1499 116.073 38.5879 117.441 67.5002 117.441Z" fill="#F5F5F5"/>
<path d="M84.6556 112.163L82.4902 112.13L81.9907 107.103L84.1588 107.135L84.6556 112.163Z" fill="#FFB573"/>
<path d="M95.8041 112.171H93.6387L91.9512 107.151H94.1166L95.8041 112.171Z" fill="#FFB573"/>
<path d="M93.3496 111.92H95.9902C96.0335 111.92 96.0754 111.935 96.1093 111.962C96.1431 111.988 96.1668 112.026 96.1765 112.068L96.6031 113.996C96.6139 114.043 96.6138 114.091 96.6028 114.138C96.5918 114.185 96.5702 114.228 96.5397 114.266C96.5091 114.303 96.4705 114.332 96.4267 114.352C96.383 114.372 96.3352 114.381 96.2872 114.379C95.4367 114.366 94.8157 114.315 93.7465 114.315C93.0877 114.315 91.1005 114.385 90.1906 114.385C89.2807 114.385 89.1619 113.486 89.5345 113.402C91.2031 113.038 92.4613 112.535 92.9959 112.052C93.0941 111.967 93.2197 111.92 93.3496 111.92Z" fill="#263238"/>
<path d="M82.5092 111.89L84.8744 111.928C84.9173 111.928 84.9589 111.943 84.9923 111.97C85.0256 111.997 85.0488 112.034 85.058 112.076L85.4549 114.01C85.4652 114.056 85.4647 114.104 85.4535 114.151C85.4423 114.197 85.4206 114.24 85.3901 114.277C85.3597 114.314 85.3212 114.343 85.2777 114.363C85.2341 114.382 85.1867 114.392 85.139 114.39C84.2831 114.363 83.0519 114.293 81.9773 114.277C80.7245 114.258 79.6391 114.309 78.1676 114.277C77.2793 114.263 77.0471 113.362 77.4197 113.286C79.1207 112.94 80.5058 112.921 81.9854 112.041C82.1428 111.944 82.3241 111.891 82.5092 111.89Z" fill="#263238"/>
<path d="M83.8402 47.5841C83.1547 49.1056 82.3914 50.5907 81.5533 52.0337C81.1348 52.7546 80.6974 53.4701 80.2222 54.1721C79.7493 54.8917 79.2373 55.5848 78.6886 56.2484L78.4753 56.5022L78.3673 56.6291C78.3295 56.6723 78.3052 56.7047 78.2296 56.783C77.9201 57.1314 77.5229 57.3905 77.0794 57.5336C76.8047 57.6197 76.5155 57.65 76.2289 57.6227C75.9761 57.6011 75.7288 57.5372 75.4972 57.4337C75.1635 57.2821 74.8591 57.0728 74.5981 56.8154C74.2282 56.4462 73.9103 56.0284 73.6531 55.5734C73.4275 55.1832 73.2229 54.7812 73.0402 54.3692C72.3733 52.8101 71.8737 51.1846 71.5498 49.52L73.105 49.0367C73.4371 49.7441 73.78 50.4758 74.1391 51.1724C74.4982 51.869 74.8654 52.5656 75.2623 53.2055C75.4485 53.5176 75.6513 53.8196 75.8698 54.11C76.0412 54.3457 76.2407 54.5597 76.4638 54.7472C76.5448 54.8093 76.6069 54.8228 76.5745 54.7958C76.5292 54.7715 76.4798 54.7559 76.4287 54.7499C76.3446 54.7402 76.2593 54.7466 76.1776 54.7688C76.0156 54.8201 75.9913 54.8579 76.0102 54.8228L76.3099 54.4097C77.1868 53.1372 77.9856 51.8127 78.7021 50.4434C79.4446 49.0637 80.1682 47.6219 80.8459 46.226L83.8402 47.5841Z" fill="#FFB573"/>
<path d="M84.742 46.226C85.3252 48.2132 81.2131 53.6321 81.2131 53.6321L77.0632 50.9645C77.8453 49.2464 78.8093 47.6171 79.9387 46.1045C81.637 43.9256 84.0994 44.0444 84.742 46.226Z" fill="#90CAF9"/>
<path opacity="0.2" d="M84.742 46.226C85.3252 48.2132 81.2131 53.6321 81.2131 53.6321L77.0632 50.9645C77.8453 49.2464 78.8093 47.6171 79.9387 46.1045C81.637 43.9256 84.0994 44.0444 84.742 46.226Z" fill="black"/>
<path opacity="0.2" d="M82.2123 48.5588C81.3591 48.9233 80.1036 50.9888 79.4502 52.5008L81.2106 53.6321C82.1941 52.3171 83.0785 50.9309 83.8566 49.4849C83.3004 48.8747 82.6632 48.3671 82.2123 48.5588Z" fill="black"/>
<path d="M73.0673 49.8143L73.6073 47.3708L71.1422 47.3519C71.1422 47.3519 70.4834 49.1879 71.8091 50.0519L73.0673 49.8143Z" fill="#FFB573"/>
<path d="M73.3183 45.0812L71.3419 45.7913L71.134 47.3519L73.5991 47.3708L73.3183 45.0812Z" fill="#FFB573"/>
<path opacity="0.2" d="M81.9934 107.103L82.2499 109.695L84.4153 109.73L84.1615 107.138L81.9934 107.103Z" fill="black"/>
<path opacity="0.2" d="M94.1166 107.154H91.9512L92.8206 109.741H94.9887L94.1166 107.154Z" fill="black"/>
<path d="M94.4026 45.3458C92.0671 53.5781 92.5396 62.3153 92.329 64.0838C90.6334 63.9623 84.2479 63.4844 80.7676 63.2252C79.2502 50.8889 82.285 44.552 82.285 44.552C82.285 44.552 83.0302 44.4089 84.04 44.3036C84.3559 44.2712 84.6988 44.2442 85.0552 44.2253C85.2523 44.2253 85.4521 44.2064 85.6546 44.2037C87.2982 44.2318 88.9389 44.3535 90.5686 44.5682C90.8764 44.606 91.1896 44.6546 91.4947 44.7032C91.7998 44.7518 92.0509 44.8031 92.3047 44.8544C93.4927 45.0893 94.4026 45.3458 94.4026 45.3458Z" fill="#90CAF9"/>
<path opacity="0.2" d="M94.4026 45.3458C92.0671 53.5781 92.5396 62.3153 92.329 64.0838C90.6334 63.9623 84.2479 63.4844 80.7676 63.2252C79.2502 50.8889 82.285 44.552 82.285 44.552C82.285 44.552 83.0302 44.4089 84.04 44.3036C84.3559 44.2712 84.6988 44.2442 85.0552 44.2253C85.2523 44.2253 85.4521 44.2064 85.6546 44.2037C87.2982 44.2318 88.9389 44.3535 90.5686 44.5682C90.8764 44.606 91.1896 44.6546 91.4947 44.7032C91.7998 44.7518 92.0509 44.8031 92.3047 44.8544C93.4927 45.0893 94.4026 45.3458 94.4026 45.3458Z" fill="black"/>
<path opacity="0.2" d="M91.935 48.8774C91.7271 49.6739 91.9647 53.3081 92.7963 54.2045C92.9097 53.0408 93.0663 51.8258 93.2607 50.5838L91.935 48.8774Z" fill="black"/>
<path d="M90.4932 38.99C90.0666 40.5479 89.5401 43.4234 90.5688 44.5601C89.6454 45.3512 88.4493 46.253 86.5674 46.1801C84.6855 46.1072 85.1067 44.8301 85.6548 44.1956C87.4476 43.904 87.5016 42.5918 87.2748 41.3417L90.4932 38.99Z" fill="#FFB573"/>
<path d="M90.3959 44.12C90.3959 44.12 89.6183 45.4025 86.4917 46.1828C87.0101 46.6634 87.2612 47.8028 87.2612 47.8028C87.2612 47.8028 91.3409 46.82 91.2167 44.525C90.9677 44.345 90.6902 44.2081 90.3959 44.12Z" fill="#263238"/>
<path d="M85.3793 47.5085C85.3793 47.5085 85.7897 46.5203 86.4917 46.1828C86.165 45.8453 85.6817 44.8328 85.9679 44.0741C85.7258 44.0548 85.4821 44.0702 85.2443 44.12C85.2443 44.12 84.0077 45.6779 85.3793 47.5085Z" fill="#263238"/>
<path d="M86.3568 47.5382C86.3217 47.7488 86.1975 47.9054 86.0868 47.8838C85.9761 47.8622 85.9086 47.6759 85.9464 47.4653C85.9842 47.2547 86.1084 47.0954 86.2164 47.117C86.3244 47.1386 86.4 47.3249 86.3568 47.5382Z" fill="#263238"/>
<path d="M86.173 48.7532C86.1541 48.9692 86.0461 49.1339 85.93 49.1231C85.8139 49.1123 85.7356 48.9314 85.7545 48.7181C85.7734 48.5048 85.8814 48.3374 85.9975 48.3482C86.1136 48.359 86.1919 48.5399 86.173 48.7532Z" fill="#263238"/>
<path opacity="0.2" d="M89.1864 39.9593L87.2964 41.3498C87.3529 41.6407 87.3819 41.9363 87.3828 42.2327C88.0659 42.1841 89.046 41.5145 89.1702 40.8152C89.2252 40.533 89.2307 40.2434 89.1864 39.9593Z" fill="black"/>
<path d="M86.157 33.1067C84.4722 33.0689 84.132 37.1405 85.2255 37.8506C86.319 38.5607 89.3106 33.1742 86.157 33.1067Z" fill="#263238"/>
<path d="M90.8576 36.6329C90.5687 38.7632 90.5066 40.0268 89.3429 41.0447C87.5933 42.5756 85.0229 41.3984 84.6719 39.2249C84.356 37.2674 84.8825 34.1111 87.0425 33.4145C87.5177 33.2584 88.0251 33.2265 88.5161 33.3218C89.0072 33.4171 89.4658 33.6365 89.8481 33.9591C90.2305 34.2816 90.524 34.6967 90.7007 35.1647C90.8774 35.6327 90.9314 36.1381 90.8576 36.6329Z" fill="#FFB573"/>
<path d="M90.5526 38.72C89.4726 39.2897 88.2252 33.3929 91.0926 33.7007C94.6944 34.0841 92.7207 37.5833 90.5526 38.72Z" fill="#263238"/>
<path d="M85.7439 33.6872C85.7439 35.0075 90.0288 36.3197 91.4976 35.8688C92.9664 35.4179 93.3363 34.2488 92.5479 33.4388C91.2141 32.0429 85.7439 31.1006 85.7439 33.6872Z" fill="#263238"/>
<path d="M85.9165 33.86C86.0155 34.2968 86.2289 34.6993 86.5349 35.0264C86.1515 35.0048 85.7708 34.4621 85.6493 34.1462C85.5278 33.8303 85.9165 33.86 85.9165 33.86Z" fill="#263238"/>
<path d="M91.6488 39.0656C91.4903 39.2819 91.2906 39.4648 91.0613 39.6038C90.8319 39.7428 90.5774 39.8351 90.3123 39.8756C89.6022 39.9782 89.3403 39.3194 89.6157 38.6984C89.8641 38.1395 90.531 37.4132 91.206 37.5968C91.881 37.7804 92.0376 38.5283 91.6488 39.0656Z" fill="#FFB573"/>
<path d="M81.4454 109.19L85.1147 109.247C85.1147 109.247 83.8889 94.7504 84.221 88.0058C84.3209 85.9538 84.734 83.0837 85.274 80.0084C85.9598 76.1312 86.2892 74.5868 87.164 69.689C87.7958 66.1952 88.3574 63.8003 88.3574 63.8003L80.7569 63.2333C80.7569 63.2333 77.5439 80.6969 77.6195 87.32C77.6951 94.1861 81.4454 109.19 81.4454 109.19Z" fill="#263238"/>
<path opacity="0.2" d="M85.6926 68.42C84.3264 71.822 84.2994 79.7924 84.9285 82.0361C85.0365 81.3719 85.1526 80.6861 85.2741 80.0003C85.9599 76.1231 86.2893 74.5787 87.1641 69.6809C87.1803 69.5837 87.1992 69.4892 87.2154 69.3947C86.7678 68.9844 86.2526 68.6547 85.6926 68.42Z" fill="black"/>
<path d="M84.8689 63.5303C84.8689 63.5303 85.5385 81.8066 86.0488 88.1354C86.605 95.069 91.7998 109.239 91.7998 109.239H95.7688C95.7688 109.239 93.1201 96.2786 92.3074 89.5286C91.3813 81.8606 92.3236 64.0784 92.3236 64.0784L84.8689 63.5303Z" fill="#263238"/>
<path d="M91.3274 109.325H96.0011V107.929L90.7766 107.837L91.3274 109.325Z" fill="#90CAF9"/>
<path d="M80.9836 109.26L85.3549 109.328L85.3765 107.916L80.4895 107.764L80.9836 109.26Z" fill="#90CAF9"/>
<path d="M87.5664 36.9893C87.5529 37.1648 87.4503 37.2998 87.3369 37.289C87.2235 37.2782 87.1398 37.1324 87.1533 36.9596C87.1668 36.7868 87.2694 36.6518 87.3828 36.6599C87.4962 36.668 87.5799 36.83 87.5664 36.9893Z" fill="#263238"/>
<path d="M85.5898 36.8435C85.5898 37.019 85.4737 37.1513 85.3603 37.1432C85.2469 37.1351 85.1659 36.9866 85.1767 36.8138C85.1875 36.641 85.2928 36.5033 85.4089 36.5114C85.525 36.5195 85.6087 36.668 85.5898 36.8435Z" fill="#263238"/>
<path d="M86.2162 36.9758C85.968 37.4937 85.6501 37.9752 85.2712 38.4068C85.3827 38.499 85.5128 38.5661 85.6526 38.6033C85.7924 38.6406 85.9386 38.6473 86.0812 38.6228L86.2162 36.9758Z" fill="#ED893E"/>
<path d="M86.7942 39.1439C86.9902 39.1361 87.1825 39.088 87.359 39.0025C87.5356 38.917 87.6926 38.7961 87.8202 38.6471C87.825 38.6423 87.8289 38.6367 87.8315 38.6304C87.8341 38.6242 87.8354 38.6174 87.8354 38.6107C87.8354 38.6039 87.8341 38.5972 87.8315 38.5909C87.8289 38.5847 87.825 38.579 87.8202 38.5742C87.8103 38.5651 87.7973 38.5601 87.7838 38.5601C87.7703 38.5601 87.7573 38.5651 87.7473 38.5742C87.6025 38.7367 87.4215 38.8627 87.2188 38.942C87.0161 39.0213 86.7975 39.0516 86.5809 39.0305C86.5678 39.0297 86.5548 39.0341 86.5447 39.0426C86.5347 39.0512 86.5283 39.0633 86.5269 39.0764C86.5262 39.0832 86.5268 39.09 86.5287 39.0965C86.5306 39.103 86.5338 39.1091 86.538 39.1143C86.5423 39.1196 86.5476 39.124 86.5536 39.1272C86.5595 39.1304 86.5661 39.1324 86.5728 39.1331C86.6463 39.1418 86.7203 39.1454 86.7942 39.1439Z" fill="#263238"/>
<path d="M88.2225 36.398C88.2399 36.3976 88.2569 36.392 88.2711 36.3818C88.2824 36.3747 88.2922 36.3654 88.2999 36.3544C88.3075 36.3434 88.3129 36.331 88.3157 36.3179C88.3184 36.3048 88.3185 36.2913 88.316 36.2781C88.3134 36.265 88.3083 36.2525 88.3008 36.2414C88.2151 36.101 88.0966 35.9834 87.9556 35.8988C87.8145 35.8141 87.655 35.7649 87.4908 35.7554C87.4636 35.7554 87.4375 35.7662 87.4182 35.7855C87.399 35.8047 87.3882 35.8308 87.3882 35.858C87.3882 35.8852 87.399 35.9113 87.4182 35.9306C87.4375 35.9498 87.4636 35.9606 87.4908 35.9606C87.6192 35.9711 87.7433 36.0121 87.8527 36.0802C87.9621 36.1483 88.0537 36.2415 88.1199 36.3521C88.1307 36.3689 88.1461 36.3822 88.1643 36.3904C88.1826 36.3985 88.2028 36.4012 88.2225 36.398Z" fill="#263238"/>
<path d="M84.796 36.1037C84.813 36.1024 84.8295 36.097 84.844 36.0881C84.8586 36.0792 84.8708 36.0669 84.8797 36.0524C84.9408 35.9383 85.0284 35.8406 85.135 35.7673C85.2416 35.694 85.3643 35.6473 85.4926 35.6312C85.506 35.6305 85.5191 35.6272 85.5311 35.6213C85.5432 35.6155 85.5539 35.6073 85.5628 35.5972C85.5716 35.5871 85.5783 35.5754 85.5825 35.5627C85.5866 35.55 85.5882 35.5365 85.5871 35.5232C85.5868 35.5098 85.5838 35.4967 85.5783 35.4845C85.5727 35.4723 85.5648 35.4614 85.555 35.4523C85.5452 35.4433 85.5337 35.4363 85.5211 35.4317C85.5085 35.4272 85.4952 35.4253 85.4818 35.426C85.3198 35.445 85.1646 35.5021 85.029 35.5927C84.8934 35.6833 84.7811 35.8047 84.7015 35.9471C84.6948 35.9588 84.6904 35.9717 84.6886 35.9851C84.6869 35.9985 84.6878 36.0121 84.6913 36.0251C84.6948 36.0382 84.7008 36.0504 84.7091 36.0611C84.7173 36.0718 84.7276 36.0808 84.7393 36.0875C84.7565 36.0978 84.776 36.1034 84.796 36.1037Z" fill="#263238"/>
<path d="M92.6315 112.3C92.8228 112.295 93.0129 112.269 93.1985 112.222C93.2087 112.22 93.218 112.214 93.2252 112.207C93.2324 112.199 93.2372 112.189 93.239 112.179C93.2398 112.169 93.238 112.159 93.2337 112.15C93.2295 112.141 93.2229 112.133 93.2147 112.128C93.1364 112.079 92.4371 111.65 92.1968 111.771C92.1702 111.785 92.1479 111.806 92.1323 111.832C92.1166 111.858 92.1081 111.887 92.1077 111.917C92.1028 111.967 92.11 112.018 92.1288 112.065C92.1476 112.112 92.1774 112.154 92.2157 112.187C92.3377 112.27 92.4841 112.31 92.6315 112.3ZM93.05 112.149C92.6828 112.222 92.3993 112.209 92.2805 112.109C92.2544 112.086 92.2343 112.058 92.222 112.026C92.2097 111.994 92.2057 111.959 92.2103 111.925C92.2095 111.913 92.2121 111.9 92.2178 111.89C92.2235 111.879 92.2321 111.869 92.2427 111.863C92.3669 111.798 92.7665 111.985 93.05 112.16V112.149Z" fill="#90CAF9"/>
<path d="M93.1877 112.222C93.1965 112.225 93.2058 112.225 93.2147 112.222C93.2223 112.217 93.2285 112.21 93.2327 112.202C93.237 112.194 93.2391 112.185 93.239 112.176C93.239 112.149 93.185 111.523 92.9339 111.318C92.9044 111.291 92.8695 111.272 92.8317 111.261C92.7939 111.25 92.7542 111.247 92.7152 111.253C92.6766 111.252 92.6389 111.265 92.6088 111.289C92.5787 111.313 92.5581 111.347 92.5505 111.385C92.5046 111.628 92.9393 112.103 93.1634 112.225L93.1877 112.222ZM92.7503 111.35C92.7935 111.35 92.8351 111.366 92.8664 111.396C93.019 111.59 93.1085 111.827 93.1229 112.074C92.9015 111.903 92.6234 111.534 92.6504 111.404C92.6504 111.391 92.6504 111.358 92.726 111.35H92.7503Z" fill="#90CAF9"/>
<path d="M82.2906 112.176C82.2998 112.173 82.308 112.167 82.3142 112.159C82.3203 112.152 82.3243 112.143 82.3257 112.133C82.3269 112.123 82.325 112.112 82.3201 112.103C82.3153 112.094 82.3079 112.087 82.2987 112.082C82.2015 112.028 81.3375 111.574 81.0729 111.715C81.048 111.728 81.027 111.748 81.0119 111.772C80.9968 111.796 80.988 111.824 80.9865 111.852C80.9802 111.898 80.9853 111.945 81.0013 111.989C81.0173 112.033 81.0437 112.072 81.0783 112.103C81.3105 112.317 81.9342 112.241 82.2852 112.176H82.2906ZM81.1404 111.798C81.3024 111.744 81.7722 111.931 82.1151 112.101C81.6345 112.174 81.2781 112.147 81.1458 112.028C81.1233 112.007 81.1062 111.98 81.0959 111.951C81.0855 111.922 81.0823 111.891 81.0864 111.86C81.0864 111.849 81.0898 111.838 81.096 111.828C81.1022 111.819 81.1111 111.811 81.1215 111.806L81.1404 111.798Z" fill="#90CAF9"/>
<path d="M82.2905 112.176H82.304C82.3118 112.172 82.3179 112.165 82.3218 112.157C82.3256 112.148 82.327 112.139 82.3257 112.13C82.3257 112.106 82.2743 111.52 82.0016 111.291C81.9651 111.258 81.9224 111.233 81.876 111.217C81.8296 111.201 81.7805 111.195 81.7316 111.199C81.5885 111.199 81.548 111.28 81.5372 111.339C81.494 111.582 82.0043 112.06 82.2635 112.182C82.2728 112.182 82.2821 112.18 82.2905 112.176ZM81.6749 111.301H81.729C81.7666 111.298 81.8045 111.302 81.8404 111.314C81.8762 111.327 81.909 111.346 81.9368 111.372C82.0939 111.563 82.1882 111.797 82.2068 112.044C81.9368 111.879 81.5966 111.504 81.6209 111.358C81.629 111.35 81.6317 111.315 81.6749 111.301Z" fill="#90CAF9"/>
<path d="M94.9589 46.6958C95.7149 48.2132 96.3926 49.7306 97.0163 51.2858C97.3322 52.0634 97.6238 52.8545 97.91 53.651C98.0504 54.0533 98.18 54.461 98.315 54.8606L98.4122 55.1657L98.5175 55.5167C98.5931 55.757 98.6363 55.9973 98.693 56.2349C98.9908 58.0531 98.9062 59.9134 98.4446 61.697C98.2445 62.5437 97.9911 63.377 97.6859 64.1918C97.532 64.5968 97.3673 65.0018 97.1918 65.3879C97.0163 65.774 96.8381 66.1628 96.6194 66.5678L95.1263 65.9198C95.3342 65.1827 95.5448 64.3862 95.6933 63.6113C95.8418 62.8364 95.9795 62.0534 96.0659 61.2812C96.1512 60.523 96.1819 59.7596 96.1577 58.997C96.1432 58.283 96.0435 57.5733 95.8607 56.8829C95.8094 56.7236 95.7689 56.5562 95.7068 56.405C95.6744 56.3267 95.6555 56.2619 95.615 56.1674L95.5016 55.8974C95.3504 55.5275 95.1857 55.1576 95.0291 54.7877C94.7132 54.0425 94.3703 53.3054 94.0409 52.5629L92.0024 48.1268L94.9589 46.6958Z" fill="#FFB573"/>
<path d="M94.4026 45.3458C96.379 45.9668 98.323 52.6709 98.323 52.6709L93.7492 54.6716C93.7492 54.6716 92.2696 51.4316 91.4164 48.8936C90.4903 46.1261 92.005 44.5952 94.4026 45.3458Z" fill="#90CAF9"/>
<path opacity="0.2" d="M94.4026 45.3458C96.379 45.9668 98.323 52.6709 98.323 52.6709L93.7492 54.6716C93.7492 54.6716 92.2696 51.4316 91.4164 48.8936C90.4903 46.1261 92.005 44.5952 94.4026 45.3458Z" fill="black"/>
<path d="M95.2479 65.5553L94.1814 67.4804L96.6951 68.1338C96.6951 68.1338 97.4538 66.2681 96.5574 65.6741L95.2479 65.5553Z" fill="#FFB573"/>
<path d="M93.9951 69.6647L96.3036 69.8564L96.6951 68.1338L94.1814 67.4804L93.9951 69.6647Z" fill="#FFB573"/>
<path opacity="0.19" d="M80.1227 80.1029H22.9961L27.0245 22.979H84.1511L80.1227 80.1029Z" fill="#90CAF9"/>
<path opacity="0.2" d="M35.867 80.1029H27.6509L48.1196 22.979H56.3357L35.867 80.1029Z" fill="white"/>
<path opacity="0.2" d="M55.8226 80.1029H37.7002L58.1689 22.979H76.2913L55.8226 80.1029Z" fill="white"/>
<path d="M27.1757 32.7341L25.5017 32.6153L26.2415 22.1393H36.7202V23.8187H27.8048L27.1757 32.7341Z" fill="#90CAF9"/>
<path d="M32.6917 80.9426H22.0942L22.8421 70.3505L24.5161 70.4693L23.8951 79.2632H32.6917V80.9426Z" fill="#90CAF9"/>
<path d="M84.3022 32.7341L82.6309 32.6153L83.2492 23.8187H74.4526V22.1393H85.0501L84.3022 32.7341Z" fill="#90CAF9"/>
<path d="M80.903 80.9426H70.4243V79.2632H79.3397L79.9688 70.3505L81.6428 70.4693L80.903 80.9426Z" fill="#90CAF9"/>
<g opacity="0.3">
<path d="M52.4476 71.6789C52.3979 71.6779 52.3491 71.6659 52.3045 71.6438C52.2883 71.6438 51.8914 71.417 51.2245 71.0066C50.9545 70.8365 50.6143 70.6286 50.2444 70.3937C49.0699 69.6296 47.9386 68.825 46.8775 68.0015C46.6075 67.8017 46.3645 67.5965 46.1026 67.3859C45.1252 66.5759 44.2126 65.7821 43.4188 64.9937C43.2136 64.7885 43.0111 64.5833 42.8086 64.3727C42.0714 63.6136 41.379 62.8121 40.735 61.9724C40.5784 61.7699 40.4272 61.562 40.2787 61.3514C39.7296 60.5861 39.2395 59.78 38.8126 58.9403C38.71 58.7378 38.6074 58.5245 38.5129 58.3112C38.1584 57.5303 37.8817 56.7164 37.6867 55.8812C37.6381 55.6895 37.5949 55.4816 37.5571 55.2494C37.5274 55.0982 37.5031 54.9389 37.4842 54.7823C37.4005 54.164 37.3303 53.5349 37.2628 52.8545C37.2412 52.652 37.2223 52.4468 37.2034 52.2443C37.1332 51.4343 37.0738 50.6432 37.0306 49.8548V49.79C37.0306 49.6118 37.009 49.4336 37.0009 49.25C36.9631 48.4724 36.9361 47.6705 36.9199 46.8659V46.253C36.9199 45.4025 36.9199 44.6006 36.9199 43.8689C36.9199 43.6637 36.9199 43.4585 36.9334 43.256C36.9523 42.3758 36.982 41.5739 37.0171 40.8719V40.826C37.0171 40.6316 37.0333 40.4426 37.0441 40.2563C37.0927 39.3869 37.1494 38.5634 37.2088 37.8722C37.2277 37.6373 37.2439 37.4375 37.2628 37.2593C37.3249 36.5789 37.3708 36.1982 37.3708 36.1982C37.3764 36.1285 37.4066 36.063 37.4561 36.0135C37.5056 35.964 37.5711 35.9338 37.6408 35.9282C37.6894 35.9282 42.6709 35.5421 47.9764 34.6079C49.0564 34.4189 50.0986 34.2137 51.0868 34.0004C52.5421 33.6818 53.8732 33.3362 55.0477 32.9717C55.1066 32.9529 55.1698 32.9529 55.2286 32.9717C56.3491 33.3389 57.6316 33.6845 59.041 34.0004C59.9995 34.2164 61.0147 34.4189 62.065 34.6079C67.2382 35.5421 72.1657 35.9255 72.2143 35.9282C72.2895 35.9344 72.3594 35.9692 72.4097 36.0255C72.4599 36.0818 72.4867 36.1552 72.4843 36.2306C72.4843 36.2306 72.4843 36.6086 72.4438 37.2917C72.4438 37.4726 72.4249 37.6778 72.4114 37.9046C72.3709 38.5985 72.3115 39.422 72.2386 40.2887C72.2224 40.4615 72.2062 40.6343 72.19 40.8152V40.9043C72.1279 41.609 72.0415 42.4109 71.9389 43.2857C71.9146 43.4936 71.8903 43.6961 71.8633 43.9013C71.7715 44.6357 71.6608 45.4376 71.5312 46.2827L71.4394 46.8929C71.3098 47.7029 71.1694 48.5129 71.0236 49.2797C70.9912 49.4525 70.9561 49.628 70.921 49.8035L70.9021 49.8953C70.7482 50.6783 70.5781 51.4829 70.3945 52.2794L70.2487 52.895C70.084 53.5754 69.9247 54.2045 69.7573 54.8201C69.7114 54.9794 69.6655 55.136 69.6169 55.2926C69.544 55.5221 69.4738 55.7273 69.3982 55.9217C69.0816 56.7644 68.6913 57.5776 68.2318 58.3517C68.1103 58.5596 67.9807 58.7702 67.8457 58.9754C67.2991 59.8161 66.6975 60.6198 66.0448 61.3811C65.8666 61.589 65.6884 61.7969 65.5048 61.9994C64.7448 62.8386 63.9427 63.6389 63.1018 64.397C62.8696 64.6058 62.6374 64.811 62.4052 65.0126C61.4899 65.801 60.4774 66.6029 59.3893 67.4021C59.0977 67.6127 58.8115 67.8179 58.528 68.0177C57.3508 68.8412 56.098 69.6377 54.829 70.4072C54.424 70.6421 54.0649 70.85 53.749 71.0201C53.0254 71.4278 52.5988 71.6465 52.5826 71.6546C52.5401 71.673 52.4939 71.6814 52.4476 71.6789ZM37.9297 36.506C37.9108 36.6842 37.8838 36.9542 37.8514 37.316C37.8325 37.4942 37.8163 37.6913 37.8001 37.9073C37.7407 38.6093 37.684 39.4274 37.6354 40.2941C37.6354 40.4777 37.6165 40.664 37.6057 40.8584V40.9043C37.5679 41.6009 37.5409 42.3974 37.522 43.2722C37.522 43.472 37.522 43.6745 37.5085 43.8797C37.5085 44.6087 37.5085 45.4052 37.5085 46.2476V46.8605C37.5247 47.657 37.5517 48.4535 37.5895 49.223C37.5895 49.4012 37.6057 49.5767 37.6165 49.763V49.844C37.6597 50.6243 37.7164 51.4208 37.7866 52.2092C37.8055 52.4117 37.8244 52.6142 37.846 52.8167C37.9108 53.489 37.9837 54.1154 38.0647 54.7256C38.0836 54.8741 38.1052 55.0226 38.1322 55.1684C38.17 55.3898 38.2105 55.5815 38.2564 55.7651C38.4437 56.5631 38.7086 57.3408 39.0475 58.0871C39.1393 58.2896 39.2338 58.4921 39.3337 58.6865C39.7476 59.5005 40.2224 60.2822 40.7539 61.0247C40.8997 61.2272 41.0455 61.4297 41.1994 61.6268C41.8303 62.4485 42.5073 63.2336 43.2271 63.9785C43.4269 64.1837 43.6267 64.3862 43.8292 64.586C44.6176 65.3609 45.5059 66.152 46.4698 66.9404C46.7398 67.1483 46.9828 67.3508 47.2366 67.5506C48.2815 68.3606 49.3966 69.1571 50.5576 69.9104C50.9221 70.1426 51.2488 70.3478 51.5269 70.5152C51.9562 70.7852 52.2748 70.9634 52.4449 71.0552C52.6258 70.9607 52.9849 70.7852 53.4493 70.5152C53.7544 70.3451 54.1081 70.1399 54.5077 69.905C55.7713 69.1517 57.0025 68.3579 58.1662 67.5425C58.4362 67.3454 58.7305 67.1429 59.0194 66.9323C60.0994 66.1439 61.0957 65.3528 61.9894 64.5752C62.2189 64.3754 62.4484 64.1729 62.6752 63.965C63.5028 63.2206 64.2922 62.4348 65.0404 61.6106C65.2213 61.4108 65.3968 61.211 65.5804 61.0085C66.2171 60.2674 66.8034 59.4844 67.3354 58.6649C67.4677 58.4651 67.6054 58.2626 67.708 58.0628C68.1565 57.3203 68.5387 56.5396 68.8501 55.73C68.923 55.5437 68.9905 55.3493 69.058 55.1306C69.1066 54.9821 69.1498 54.8309 69.1903 54.6824C69.3577 54.0722 69.517 53.4485 69.679 52.7735C69.7303 52.571 69.7762 52.3685 69.8248 52.166C70.0057 51.3749 70.1758 50.5784 70.327 49.8008L70.3459 49.7063C70.381 49.5335 70.4134 49.3607 70.4458 49.1879C70.5916 48.4211 70.732 47.6246 70.8589 46.82L70.9534 46.2125C71.0803 45.3728 71.191 44.5763 71.2828 43.8446C71.3098 43.6421 71.3314 43.4423 71.3557 43.2425C71.4583 42.3677 71.5447 41.5712 71.6068 40.8692V40.7801C71.623 40.6019 71.6392 40.4264 71.6527 40.2563C71.7256 39.3977 71.785 38.5796 71.8228 37.8911C71.8363 37.6643 71.8471 37.4618 71.8579 37.2809C71.8714 36.9515 71.8822 36.6923 71.8876 36.5168C70.7644 36.4196 66.4552 36.0227 61.9624 35.2127C60.904 35.021 59.8807 34.8158 58.9141 34.5998C57.5236 34.2866 56.2546 33.9464 55.1341 33.5846C53.965 33.9464 52.6474 34.2866 51.211 34.5998C50.2174 34.8158 49.1644 35.021 48.079 35.2127C43.4161 36.02 39.0016 36.4169 37.9297 36.506Z" fill="#90CAF9"/>
<path d="M56.6183 48.3934C58.0763 46.986 58.1945 44.7431 56.8823 43.3838C55.5701 42.0245 53.3245 42.0636 51.8665 43.471C50.4085 44.8785 50.2903 47.1214 51.6025 48.4807C52.9147 49.84 55.1604 49.8009 56.6183 48.3934Z" fill="#90CAF9"/>
<path d="M55.0207 47.1683H54.154H53.2899L50.8438 58.5785H55.8577L55.0207 47.1683Z" fill="#90CAF9"/>
<g opacity="0.2">
<path d="M62.0109 34.9076H48.0276C49.0644 34.724 50.1147 34.5215 51.1488 34.2947H58.9788C59.9805 34.5215 61.0011 34.724 62.0109 34.9076Z" fill="#90CAF9"/>
<path d="M72.1169 37.8938H37.5029C37.5191 37.667 37.5353 37.4645 37.5542 37.2809H72.1493C72.1412 37.4645 72.1304 37.667 72.1169 37.8938Z" fill="#90CAF9"/>
<path d="M71.9442 40.2671C71.928 40.4669 71.9091 40.6721 71.8902 40.8827H37.3086C37.3086 40.6721 37.3275 40.4669 37.3383 40.2671H71.9442Z" fill="#90CAF9"/>
<path d="M71.6391 43.256C71.6148 43.4585 71.5905 43.6637 71.5635 43.8689H37.2114C37.2114 43.6637 37.2114 43.4585 37.2249 43.256H71.6391Z" fill="#90CAF9"/>
<path d="M71.2341 46.2449C71.2017 46.4474 71.172 46.6499 71.1396 46.8551H37.2141C37.2141 46.6499 37.2141 46.4474 37.2141 46.2449H71.2341Z" fill="#90CAF9"/>
<path d="M70.7401 49.2311L70.6186 49.844H37.3276C37.3276 49.6388 37.3033 49.4336 37.2952 49.2311H70.7401Z" fill="#90CAF9"/>
<path d="M70.1001 52.22L69.9543 52.8302H37.5543C37.5327 52.6277 37.5138 52.4225 37.4949 52.22H70.1001Z" fill="#90CAF9"/>
<path d="M69.3279 55.2062C69.2631 55.4114 69.1929 55.6166 69.1146 55.8191H37.9755C37.9242 55.6166 37.8837 55.4114 37.8486 55.2062H69.3279Z" fill="#90CAF9"/>
<path d="M67.9697 58.1924C67.8509 58.3976 67.7213 58.6055 67.5917 58.8053H39.077C38.9744 58.6055 38.8772 58.3976 38.7854 58.1924H67.9697Z" fill="#90CAF9"/>
<path d="M65.8126 61.1813C65.6371 61.3865 65.4616 61.5917 65.2726 61.7915H40.9726C40.816 61.5917 40.6675 61.3865 40.5217 61.1813H65.8126Z" fill="#90CAF9"/>
<path d="M62.891 64.1675C62.6615 64.3754 62.432 64.5806 62.1998 64.7804H43.6265C43.424 64.5806 43.2215 64.3754 43.0217 64.1675H62.891Z" fill="#90CAF9"/>
<path d="M59.2029 67.1537C58.9113 67.3643 58.6278 67.5695 58.3443 67.7666H47.061C46.8072 67.5695 46.5507 67.3643 46.2888 67.1537H59.2029Z" fill="#90CAF9"/>
<path d="M54.6669 70.1426C54.2646 70.3775 53.9082 70.5827 53.6031 70.7528H51.381C51.111 70.5827 50.7708 70.3775 50.4036 70.1426H54.6669Z" fill="#90CAF9"/>
</g>
</g>
</svg>
