<svg width="375" height="366" viewBox="0 0 375 366" fill="none" xmlns="http://www.w3.org/2000/svg">
<mask id="mask0_106_696" style="mask-type:alpha" maskUnits="userSpaceOnUse" x="0" y="0" width="375" height="365">
<path d="M0 0H375V345C375 356.046 366.046 365 355 365H20C8.95431 365 0 356.046 0 345V0Z" fill="#4682A9"/>
</mask>
<g mask="url(#mask0_106_696)">
<path d="M628 366H-253V-515H628V366Z" fill="#4682A9"/>
<path d="M5.65177 4.34163C10.6245 0.167646 16.4078 -4.35089 23.5987 -6.95474C41.436 -15.3908 62.3294 -6.29105 80.4585 -16.3991C85.7523 -18.9931 90.772 -22.5406 95.13 -26.9828C99.6153 -31.6874 103.192 -36.4056 105.587 -42.5569C108.212 -48.9413 109.504 -55.1121 109.414 -61.8156C109.297 -68.3741 108.179 -75.1774 105.032 -81.3131C101.9 -87.5114 97.2679 -92.3883 91.7764 -96.6817C86.2006 -100.486 79.8417 -103.066 73.1089 -104.059C59.8254 -105.112 45.516 -100.499 38.5777 -87.8717C35.0243 -82.5406 33.09 -76.2229 32.8473 -69.9071C32.8296 -66.851 33.2564 -63.8106 34.1139 -60.8895C35.2534 -57.4909 36.5964 -54.8166 38.3486 -52.4457C45.2517 -42.8663 56.3934 -38.2537 66.5347 -39.4715C77.1674 -40.9829 83.9198 -48.1699 86.414 -55.6877C89.2195 -63.2819 86.1164 -70.7529 82.2616 -74.2749C78.3793 -77.979 74.1466 -79.1419 71.4507 -79.0186C68.7549 -78.9775 67.4216 -78.3979 67.4177 -78.4978C67.4059 -78.4038 68.8782 -78.676 71.3528 -78.1767C73.8568 -77.8165 77.2438 -75.7843 79.9083 -72.2427C82.5121 -68.707 83.6183 -63.049 80.8637 -57.9216C79.5696 -55.398 77.559 -52.9371 74.8553 -51.2612C73.5769 -50.5505 72.598 -49.8908 70.4464 -49.1684C69.2169 -48.7279 67.3981 -48.491 65.8241 -48.4205C59.2401 -48.3735 51.8808 -52.5298 48.0513 -58.9298C47.0411 -60.4902 46.4773 -62.3364 46.0799 -63.5952C45.9272 -64.4292 45.7745 -65.2652 45.6198 -66.1012C45.5944 -66.2226 45.7471 -65.4649 45.6844 -65.8251C45.7353 -66.9998 45.749 -68.1862 45.7157 -69.3569C46.3422 -73.016 47.4347 -76.8337 49.9406 -80.1032C52.6521 -84.9683 58.8896 -88.0753 64.1834 -89.1834C62.7875 -88.8114 63.8506 -89.0835 63.5628 -89.0013C66.0531 -89.1834 68.5826 -89.2656 71.0631 -89.1031C75.1862 -88.3826 79.2505 -86.6813 82.8313 -84.1851C84.793 -82.6268 86.598 -80.902 88.2445 -79.0127C89.0825 -77.6873 89.9184 -76.3619 90.7564 -75.0365L91.0207 -74.4002C94.9264 -66.8275 95.0087 -56.5276 91.7666 -48.5947C91.3711 -46.9932 89.8558 -44.4932 88.6243 -42.2085C87.3929 -40.3799 86.0499 -38.6786 84.6207 -36.9929C81.6272 -33.5962 77.9917 -30.7065 74.0017 -28.5177C57.388 -18.5918 36.4143 -25.0152 19.971 -15.1206C11.67 -11.068 5.9513 -4.99304 1.28591 0.296877C-5.27069 9.78818 -10.3472 19.1366 -13.3661 30.3879C-8.31894 20.5951 -1.81128 12.3685 5.65177 4.34163Z" fill="#749BC2" fill-opacity="0.5"/>
<path d="M43.2275 16.4133C46.9316 15.3914 50.6944 15.0605 54.3868 14.9587C57.5545 14.9528 60.6967 15.3757 63.7704 16.1157C69.5224 17.8288 73.3831 20.9143 77.9252 24.7593C79.0666 26.0045 79.9808 27.4121 80.9636 28.7414C82.4124 31.6116 83.7985 34.5404 83.8886 37.5475C83.9473 38.219 84.0217 38.8906 84.1098 39.5582C83.8259 41.9858 83.1094 44.2471 82.4046 46.5729C80.2451 51.7395 75.1902 56.3011 69.6046 57.4014C66.6954 58.0788 63.5825 57.9985 60.6869 57.3054C60.5773 57.2682 61.4387 57.6167 61.0354 57.4542C58.5295 56.7318 56.2213 55.5082 54.2263 53.8363C50.3146 50.3906 48.2609 45.3591 48.9657 41.3241C49.6999 37.1873 53.0732 34.0294 56.2154 32.6414C59.4007 31.2122 62.4313 31.2043 64.3167 31.821C66.112 32.3731 66.9734 33.0642 67.1045 33.0995C66.9323 32.9331 66.2979 32.0207 64.6828 31.0007C62.8777 29.8691 59.4966 28.7747 55.2835 29.6753C51.2524 30.5035 45.7902 33.1895 43.2647 39.5131C40.7724 45.8466 42.5481 54.0027 47.7441 60.0463C50.6807 63.1651 54.0207 65.8061 58.0263 67.3625C62.1494 68.9444 66.7815 69.4495 71.4234 68.9288C80.899 67.946 90.2063 61.9826 95.0048 52.1173C97.2641 47.1641 98.7442 42.1875 98.4251 36.7997C98.5112 31.2415 96.5515 25.9516 94.0945 21.1531C92.6633 18.9095 91.193 16.6169 89.4624 14.6004C83.636 8.74471 77.7803 4.30644 69.8572 1.71434C59.0874 -1.6315 48.9246 -0.613464 39.4764 1.80635C-1.01829 11.7107 -26.164 54.0614 -26.1914 93.5341C-16.0521 59.4277 6.0062 25.051 43.2275 16.4133Z" fill="#749BC2" fill-opacity="0.5"/>
<path d="M122.629 40.7211C126.329 42.5301 129.965 43.321 131.932 43.9201C132.794 42.0739 134.511 38.9473 134.994 34.2408C135.701 29.4541 134.125 23.5122 129.256 16.8832C126.539 13.829 123.682 11.2839 120.838 9.33397C117.748 7.63461 114.747 6.43645 111.998 5.63964C109.318 4.74493 106.583 4.65292 104.289 4.68816C103.742 4.69795 103.222 4.72144 102.716 4.75472C90.7427 -1.43382 78.9294 -4.83446 65.2152 -6.21665C78.2344 -2.9315 89.151 1.9551 99.7974 9.64916C102.213 17.4803 105.724 25.5522 111.147 31.4823C114.669 36.4179 119.13 38.7672 122.629 40.7211Z" fill="#749BC2" fill-opacity="0.5"/>
<path d="M130.816 2.32121C135.734 4.77235 140.404 4.56873 144.186 4.44539C148.062 4.11844 151.492 2.99273 153.421 2.52483C153.399 0.557259 153.578 -2.90606 152.027 -7.10354C150.623 -11.4576 146.827 -15.7687 139.959 -19.0675C136.414 -20.389 132.96 -21.1976 129.773 -21.5069C126.5 -21.5108 123.51 -21.1193 120.904 -20.4967C117.676 -19.7449 114.998 -18.3079 112.909 -16.8826C100.518 -16.7338 89.4544 -14.4276 77.7019 -9.69955C89.6952 -12.4169 100.639 -12.9925 112.564 -11.1933C117.672 -5.59213 123.808 -0.173 130.816 2.32121Z" fill="#749BC2" fill-opacity="0.5"/>
<path d="M33.0724 54.0731C35.4648 51.0072 36.9684 47.724 37.9355 45.9914C36.475 44.6699 34.0552 42.1875 29.9204 40.4744C25.7719 38.5479 20.0297 38.407 12.9445 41.2066C9.56537 42.9118 6.62675 44.897 4.23631 47.0271C2.00836 49.4273 0.265913 51.8863 -1.0458 54.2219C-2.68837 57.1018 -3.45385 60.0443 -3.82387 62.5464C-12.1307 71.7421 -17.9512 81.4272 -22.4639 93.2639C-16.3125 82.6156 -9.30173 74.1912 0.117134 66.6616C7.69765 66.7184 15.842 65.8942 22.4338 62.4426C27.571 60.4985 30.5939 56.9334 33.0724 54.0731Z" fill="#749BC2" fill-opacity="0.5"/>
<path d="M-19.3002 100.831C-20.9428 103.711 -21.7063 106.653 -22.0783 109.155C-30.3851 118.351 -36.2056 128.038 -40.7183 139.875C-34.5669 129.226 -27.5561 120.802 -18.1373 113.272C-10.5567 113.327 -2.41239 112.503 4.17945 109.053C9.31665 107.107 12.3395 103.544 14.818 100.684C17.2124 97.6161 18.714 94.3329 19.6811 92.6002C18.2206 91.2787 15.8008 88.7963 11.6679 87.0832C7.51746 85.1568 1.7753 85.0158 -5.30989 87.8174C-8.68902 89.5206 -11.6276 91.5059 -14.0181 93.6359C-16.2441 96.0361 -17.9885 98.4951 -19.3002 100.831Z" fill="#749BC2" fill-opacity="0.5"/>
<path d="M41.7453 102.789C38.652 103.983 36.2009 105.78 34.3312 107.485C22.0814 109.363 11.4507 113.19 0.471436 119.512C11.9695 115.148 22.7255 113.049 34.7834 113.165C40.6235 117.999 47.4562 122.507 54.7469 123.999C59.9566 125.738 64.5534 124.886 68.281 124.234C72.0733 123.371 75.3134 121.775 77.1576 121.045C76.862 119.097 76.5546 115.643 74.4324 111.704C72.4335 107.587 68.0716 103.85 60.8121 101.543C57.1158 100.729 53.584 100.41 50.385 100.551C47.1429 101.003 44.2376 101.808 41.7453 102.789Z" fill="#749BC2" fill-opacity="0.5"/>
<path d="M366.944 -40.7675C351.123 -8.89686 323.513 21.202 285.361 23.3497C281.538 23.7236 277.773 23.4045 274.118 22.8739C270.995 22.3395 267.97 21.3841 265.069 20.1311C259.695 17.4587 256.418 13.7585 252.602 9.193C251.69 7.77165 251.03 6.22893 250.288 4.75081C249.352 1.67514 248.487 -1.44751 248.911 -4.42529C248.968 -5.09681 249.011 -5.7703 249.039 -6.44573C249.734 -8.78724 250.824 -10.8918 251.917 -13.063C254.928 -17.7852 260.688 -21.4169 266.381 -21.5441C269.362 -21.7164 272.415 -21.1036 275.15 -19.927C275.251 -19.8702 274.462 -20.3616 274.831 -20.1326C277.178 -18.9931 279.243 -17.3917 280.921 -15.4045C284.187 -11.3402 285.352 -6.03067 283.966 -2.17777C282.534 1.77303 278.672 4.30835 275.338 5.13845C271.956 6.00378 268.969 5.49279 267.217 4.56285C265.541 3.71317 264.813 2.88503 264.689 2.8263C264.83 3.02012 265.3 4.02643 266.716 5.30877C268.301 6.73208 271.446 8.38836 275.749 8.22195C279.862 8.09469 285.704 6.38163 289.273 0.582695C292.811 -5.2319 292.456 -13.5701 288.371 -20.4125C286.009 -23.9894 283.171 -27.161 279.492 -29.3811C275.698 -31.6423 271.222 -32.9345 266.559 -33.2144C257.054 -33.8664 246.866 -29.5808 240.45 -20.6807C237.376 -16.1876 235.068 -11.5379 234.461 -6.17556C233.426 -0.71336 234.451 4.83499 236.053 9.98199C237.079 12.437 238.138 14.9469 239.497 17.2316C244.236 23.9958 249.246 29.3718 256.611 33.2776C266.649 38.4148 276.837 39.1509 286.56 38.3815C328.151 35.5466 360.168 -1.88214 366.944 -40.7675Z" fill="#749BC2" fill-opacity="0.5"/>
<path d="M203.148 -41.4704C201.778 -44.6811 201.829 -47.7118 202.481 -49.5854C203.066 -51.3709 203.773 -52.2166 203.812 -52.3478C203.642 -52.1795 202.718 -51.5608 201.666 -49.9652C200.502 -48.1836 199.344 -44.8221 200.165 -40.5953C200.917 -36.5485 203.499 -31.0354 209.774 -28.3905C216.06 -25.7808 224.247 -27.3998 230.387 -32.4822C233.563 -35.3602 236.264 -38.6492 237.897 -42.6235C239.555 -46.7172 240.15 -51.3376 239.716 -55.9873C238.913 -65.4825 233.126 -74.8994 223.353 -79.8839C218.443 -82.2372 213.495 -83.8112 208.104 -83.5939C202.549 -83.7858 197.22 -81.9259 192.379 -79.559C190.108 -78.1709 187.788 -76.7417 185.738 -75.0502C179.775 -69.3374 175.225 -63.5659 172.486 -55.6936C168.936 -44.9885 169.763 -34.8081 172.002 -25.3168C181.139 15.358 223.008 41.3005 262.473 42.0739C228.564 31.2924 194.611 8.58803 186.678 -28.7899C185.726 -32.5116 185.466 -36.2823 185.433 -39.9746C185.487 -43.1423 185.971 -46.2767 186.768 -49.3348C188.588 -55.0534 191.746 -58.8554 195.678 -63.325C196.944 -64.4429 198.37 -65.3298 199.716 -66.2872C202.614 -67.6811 205.568 -69.0124 208.575 -69.0457C209.249 -69.0907 209.92 -69.1514 210.592 -69.2278C213.012 -68.8969 215.259 -68.1392 217.571 -67.3894C222.697 -65.134 227.163 -59.9929 228.155 -54.3878C228.78 -51.4668 228.639 -48.3559 227.893 -45.474C227.852 -45.3644 228.218 -46.22 228.048 -45.8206C227.278 -43.3283 226.009 -41.0436 224.302 -39.08C220.782 -35.2349 215.714 -33.2751 211.692 -34.0563C207.571 -34.8707 204.478 -38.3008 203.148 -41.4704Z" fill="#749BC2" fill-opacity="0.5"/>
<path d="M320.32 41.6667C314.707 44.9303 308.236 48.3936 300.707 49.7288C281.689 54.9913 262.657 42.4518 243.07 49.3138C237.41 50.9642 231.857 53.5993 226.802 57.231C221.581 61.1015 217.248 65.1385 213.838 70.7906C210.161 76.6306 207.833 82.4922 206.774 89.1115C205.77 95.5917 205.707 102.487 207.757 109.069C209.785 115.712 213.515 121.309 218.192 126.478C223.036 131.18 228.858 134.808 235.323 136.938C248.23 140.247 263.119 138.148 272.113 126.895C276.526 122.249 279.512 116.356 280.831 110.173C281.37 107.166 281.471 104.098 281.125 101.072C280.583 97.528 279.717 94.6637 278.396 92.0285C273.233 81.4096 263.043 74.9606 252.841 74.4262C242.108 74.0973 234.228 80.0254 230.485 87.0049C226.423 94.0079 228.202 101.9 231.397 106.029C234.588 110.342 238.561 112.209 241.237 112.55C243.902 112.971 245.315 112.628 245.301 112.726C245.329 112.636 243.831 112.654 241.478 111.738C239.072 110.954 236.082 108.374 234.064 104.427C232.102 100.5 231.981 94.7362 235.571 90.155C237.276 87.8898 239.679 85.8087 242.629 84.6203C244.011 84.1387 245.088 83.6551 247.33 83.3125C248.618 83.0874 250.45 83.1657 252.013 83.3654C258.507 84.4441 265.048 89.7986 267.728 96.7585C268.456 98.4696 268.697 100.384 268.871 101.692C268.881 102.54 268.889 103.39 268.897 104.239C268.9 104.365 268.881 103.591 268.881 103.957C268.628 105.107 268.415 106.271 268.247 107.43C267.003 110.929 265.275 114.504 262.246 117.296C258.742 121.626 252.066 123.623 246.66 123.807C248.099 123.68 247.005 123.766 247.302 123.735C244.818 123.488 242.312 123.136 239.896 122.552C235.955 121.137 232.243 118.766 229.142 115.694C227.474 113.824 225.992 111.818 224.692 109.674C224.095 108.223 223.496 106.775 222.897 105.326L222.746 104.654C220.193 96.5256 221.873 86.3627 226.423 79.1013C227.086 77.5899 229.005 75.3874 230.61 73.3455C232.135 71.7538 233.75 70.309 235.446 68.8915C238.978 66.0567 243.052 63.8307 247.357 62.3565C265.423 55.4162 284.991 65.3323 302.884 58.3959C311.754 55.8214 318.428 50.8115 323.93 46.3986C332.011 38.1681 338.611 29.8241 343.509 19.256C336.863 28.0405 329.045 35.0337 320.32 41.6667Z" fill="#749BC2" fill-opacity="0.5"/>
<path d="M202.234 79.7533C204.094 77.6722 205.425 75.4677 206.471 73.1791C207.753 71.1253 208.695 68.9522 209.441 66.7458C210.128 64.5668 210.788 62.472 211.41 60.4985C211.54 60.0463 211.637 59.6215 211.753 59.179C221.371 51.8745 231.266 47.1328 243.115 43.7732C230.532 45.2474 219.715 48.5189 208.765 54.3198C206.248 54.0672 203.209 54.0888 200.014 54.9756C197.428 55.6765 194.617 56.7631 191.744 58.3352C189.094 60.1305 186.449 62.4935 183.968 65.3519C179.518 71.5345 178.248 77.1357 179.099 81.6327C179.747 86.0593 181.562 89.0136 182.486 90.754C184.403 90.2411 187.954 89.5872 191.513 88.0171C194.893 86.3158 199.09 84.2581 202.234 79.7533Z" fill="#749BC2" fill-opacity="0.5"/>
<path d="M189.139 40.586C200.012 37.3909 210.271 36.5373 221.783 37.5456C210.257 34.6383 199.679 33.8963 188.14 35.3274C186.018 34.2663 183.346 33.2678 180.248 32.98C177.746 32.7294 174.917 32.7451 171.875 33.1641C168.95 33.8532 165.843 35.0435 162.713 36.7213C156.747 40.6584 153.762 45.1457 153.008 49.3725C152.097 53.4721 152.702 56.6691 152.931 58.5016C154.784 58.6915 158.116 59.3043 161.761 59.1164C165.295 58.7542 169.661 58.3489 173.921 55.4495C176.249 54.2454 178.152 52.7575 179.831 51.0993C181.642 49.7269 183.195 48.1352 184.585 46.4496C185.916 44.7678 187.193 43.1507 188.399 41.6276C188.661 41.2752 188.89 40.9345 189.139 40.586Z" fill="#749BC2" fill-opacity="0.5"/>
<path d="M167.593 -7.8005C167.01 -8.64626 166.362 -9.30799 165.686 -9.80526C164.334 -10.7959 162.875 -11.1405 161.663 -10.7959C160.451 -10.4513 159.486 -9.39216 159.122 -7.57143C158.938 -6.66302 158.907 -5.56665 159.063 -4.30389C159.279 -3.06853 159.803 -1.71768 160.512 -0.229765C162.785 5.02883 172.278 16.75 188.886 19.9823C180.679 13.0655 174.735 1.34036 167.593 -7.8005Z" fill="#749BC2" fill-opacity="0.5"/>
<path d="M147.538 14.0013C146.33 14.1364 145.286 14.387 144.433 14.7903C143.583 15.2288 142.915 15.7555 142.426 16.3291C141.443 17.4783 141.179 18.8116 141.463 20.0391C141.749 21.2666 142.569 22.3963 143.755 23.1343C144.351 23.5044 145.04 23.7745 145.817 23.9057C146.6 24.0702 147.483 24.1583 148.468 24.0447C152.407 23.6355 162.435 21.7267 172.278 22.7682C164.369 15.6439 152.383 13.4884 147.538 14.0013Z" fill="#749BC2" fill-opacity="0.5"/>
<path d="M230.741 201.711C214.923 233.582 187.31 263.681 149.161 265.828C145.337 266.202 141.571 265.883 137.915 265.355C134.795 264.818 131.77 263.863 128.868 262.609C123.494 259.939 120.217 256.239 116.399 251.673C115.487 250.25 114.827 248.708 114.087 247.232C113.151 244.154 112.286 241.031 112.709 238.053C112.768 237.382 112.809 236.709 112.838 236.035C113.531 233.692 114.624 231.587 115.716 229.416C118.727 224.693 124.487 221.064 130.178 220.935C133.16 220.762 136.214 221.375 138.947 222.551C139.051 222.608 138.262 222.117 138.63 222.346C140.975 223.485 143.041 225.089 144.721 227.076C147.986 231.138 149.151 236.448 147.765 240.303C146.334 244.254 142.471 246.787 139.137 247.617C135.754 248.482 132.768 247.971 131.014 247.041C129.34 246.192 128.61 245.363 128.487 245.305C128.628 245.499 129.1 246.505 130.515 247.788C132.099 249.211 135.245 250.867 139.548 250.701C143.661 250.573 149.501 248.86 153.072 243.063C156.61 237.247 156.256 228.909 152.17 222.066C149.809 218.489 146.968 215.318 143.289 213.1C139.497 210.836 135.022 209.545 130.358 209.266C120.853 208.612 110.665 212.898 104.249 221.798C101.176 226.291 98.8675 230.941 98.2606 236.305C97.2249 241.765 98.2508 247.314 99.8523 252.46C100.878 254.917 101.937 257.428 103.296 259.71C108.034 266.475 113.046 271.851 120.409 275.758C130.448 280.896 140.637 281.63 150.357 280.862C191.95 278.025 223.968 240.597 230.741 201.711Z" fill="#749BC2" fill-opacity="0.5"/>
<path d="M165.741 132.48C164.565 131.016 164.24 129.96 164.151 129.857C164.2 130.092 164.216 131.202 164.98 132.954C165.837 134.904 168.024 137.705 172.014 139.325C175.816 140.901 181.844 141.742 187.484 137.927C193.101 134.082 196.208 126.335 195.298 118.417C194.616 114.187 193.334 110.126 190.893 106.591C188.367 102.969 184.818 99.9497 180.683 97.7766C172.286 93.2737 161.236 92.9879 151.729 98.4618C147.08 101.293 143.062 104.58 140.304 109.22C137.113 113.772 135.766 119.249 135.108 124.6C135.033 127.261 134.965 129.984 135.266 132.625C136.801 140.74 139.158 147.7 144.262 154.29C151.299 163.102 160.283 167.963 169.461 171.262C208.536 185.787 253.117 164.842 275.289 132.185C247.758 154.726 210.21 170.803 174.553 157.068C170.914 155.835 167.613 153.996 164.5 152.009C161.875 150.237 159.51 148.123 157.381 145.787C153.581 141.141 152.117 136.421 150.516 130.689C150.269 129.017 150.302 127.339 150.234 125.689C150.647 122.499 151.142 119.296 152.753 116.757C153.084 116.168 153.399 115.573 153.701 114.97C155.298 113.12 157.158 111.649 159.048 110.12C163.734 107.055 170.477 106.115 175.72 108.341C178.508 109.41 181.039 111.225 183.046 113.421C183.116 113.515 182.6 112.744 182.84 113.102C184.51 115.107 185.734 117.417 186.447 119.919C187.751 124.966 186.629 130.284 183.78 133.228C180.851 136.239 176.288 136.96 172.909 136.347C169.469 135.742 166.957 134.048 165.741 132.48Z" fill="#749BC2" fill-opacity="0.5"/>
<path d="M200.227 223.689C192.768 222.338 184.602 221.757 177.517 224.032C172.122 225.069 168.535 228.063 165.604 230.459C162.722 233.071 160.68 236.049 159.431 237.591C160.643 239.142 162.603 242.002 166.383 244.397C170.144 247.004 175.777 248.124 183.236 246.578C186.858 245.475 190.092 244.02 192.811 242.331C195.415 240.348 197.553 238.221 199.245 236.146C201.355 233.589 202.612 230.821 203.407 228.419C213.163 220.778 220.553 212.23 227.024 201.339C219.142 210.78 210.794 217.88 200.227 223.689Z" fill="#749BC2" fill-opacity="0.5"/>
<path d="M225.199 193.344C227.309 190.786 228.566 188.018 229.359 185.616C239.117 177.977 246.507 169.427 252.978 158.536C245.096 167.977 236.748 175.078 226.18 180.886C218.721 179.535 210.555 178.954 203.471 181.229C198.076 182.266 194.489 185.26 191.558 187.656C188.675 190.268 186.633 193.246 185.385 194.788C186.597 196.339 188.557 199.2 192.338 201.593C196.097 204.201 201.731 205.321 209.19 203.774C212.81 202.672 216.046 201.218 218.766 199.53C221.369 197.545 223.507 195.421 225.199 193.344Z" fill="#749BC2" fill-opacity="0.5"/>
<path d="M131.047 175.735C127.974 176.626 124.728 178.059 121.488 180.013C115.346 184.522 112.411 189.459 111.834 193.998C111.084 198.408 111.898 201.78 112.241 203.718C114.222 203.822 117.801 204.298 121.672 203.902C125.413 203.326 130.039 202.662 134.419 199.346C136.831 197.942 138.779 196.255 140.476 194.401C142.33 192.842 143.898 191.065 145.288 189.197C146.614 187.335 147.888 185.548 149.088 183.86C149.351 183.472 149.576 183.096 149.821 182.713C161.225 178.731 172.098 177.274 184.405 177.731C171.981 175.253 160.682 175.029 148.478 177.168C146.162 176.152 143.264 175.234 139.951 175.091C137.275 174.96 134.266 175.128 131.047 175.735Z" fill="#749BC2" fill-opacity="0.5"/>
<path d="M103.165 173.547C105.919 173.092 108.339 172.209 110.587 171.08C112.873 170.283 114.97 169.181 116.934 167.93C118.835 166.661 120.661 165.443 122.384 164.294C122.766 164.024 123.111 163.752 123.477 163.482C135.55 163.818 146.232 166.324 157.571 171.131C146.841 164.396 136.363 160.165 124.193 157.824C122.392 156.048 120.009 154.159 116.965 152.847C114.51 151.772 111.638 150.858 108.416 150.282C105.224 150.02 101.683 150.204 97.9571 150.877C90.6154 152.906 86.1145 156.475 83.9609 160.512C81.6899 164.368 81.2533 167.808 80.8833 169.743C82.6982 170.543 85.8737 172.26 89.6306 173.268C93.3308 174.061 97.8905 175.088 103.165 173.547Z" fill="#749BC2" fill-opacity="0.5"/>
<path d="M86.5765 129.686C86.4688 130.943 86.9015 132.269 87.802 133.338C88.2543 133.872 88.826 134.342 89.5249 134.708C90.2199 135.106 91.0324 135.462 92.0034 135.658C95.8759 136.484 106.005 137.76 115.046 141.787C109.721 132.572 98.9829 126.824 94.2177 125.818C93.0254 125.573 91.9564 125.489 91.0206 125.61C90.077 125.765 89.2782 126.061 88.6361 126.454C87.3478 127.245 86.6841 128.431 86.5765 129.686Z" fill="#749BC2" fill-opacity="0.5"/>
<path d="M77.1733 107.291C77.0656 108.548 77.4983 109.876 78.3988 110.945C78.8511 111.479 79.4228 111.949 80.1217 112.313C80.8167 112.711 81.6292 113.069 82.6002 113.263C86.4727 114.089 96.6023 115.365 105.643 119.394C100.318 110.177 89.5817 104.429 84.8145 103.423C83.6242 103.18 82.5533 103.094 81.6174 103.215C80.6738 103.37 79.875 103.666 79.2329 104.061C77.9446 104.85 77.2809 106.036 77.1733 107.291Z" fill="#749BC2" fill-opacity="0.5"/>
<path d="M104.954 59.1399C103.893 58.9304 102.9 58.2589 102.231 57.2604C101.898 56.7612 101.646 56.1758 101.51 55.5141C101.348 54.8445 101.246 54.0888 101.317 53.2411C101.555 49.8463 102.91 41.1812 101.734 32.7588C108.077 39.3467 110.268 49.5781 109.966 53.7521C109.884 54.7936 109.7 55.6981 109.377 56.442C109.024 57.184 108.592 57.7714 108.112 58.208C107.155 59.085 106.017 59.3513 104.954 59.1399Z" fill="#749BC2" fill-opacity="0.5"/>
<path d="M87.6024 84.9747C86.5981 84.2601 85.8796 83.0991 85.6525 81.7522C85.539 81.0768 85.5487 80.3524 85.7191 79.6006C85.862 78.8312 86.1087 77.9991 86.5766 77.1495C88.4071 73.739 93.8556 65.3734 96.5652 56.0799C100.077 65.8785 97.5793 77.5234 95.32 81.717C94.7483 82.7605 94.1355 83.6121 93.4523 84.2347C92.7416 84.8396 92.0172 85.2488 91.3163 85.4798C89.9126 85.9418 88.6087 85.6873 87.6024 84.9747Z" fill="#749BC2" fill-opacity="0.5"/>
<path d="M58.827 93.7808C58.1241 92.567 57.9303 91.0262 58.3317 89.5226C58.5333 88.7708 58.8857 88.0249 59.4182 87.3279C59.9292 86.5977 60.5792 85.8518 61.4641 85.1959C64.9744 82.5275 74.5714 76.4427 81.7702 68.1006C80.7737 79.908 72.6822 90.7854 68.3574 94.0568C67.2728 94.8673 66.2352 95.4605 65.2348 95.7816C64.2109 96.0733 63.2692 96.1536 62.4332 96.0616C60.7613 95.8756 59.5318 94.9946 58.827 93.7808Z" fill="#749BC2" fill-opacity="0.5"/>
<path d="M24.1841 79.5007C24.374 77.8131 25.2941 76.1725 26.7664 74.9959C27.5064 74.4085 28.3854 73.9367 29.4054 73.6392C30.4294 73.2965 31.5982 73.0381 32.9334 73.0361C38.2722 72.9637 52.0002 73.9446 65.0174 70.9981C55.5476 81.7816 39.8365 86.5546 33.2701 86.631C31.6295 86.6388 30.1925 86.4704 28.9865 86.0612C27.7805 85.609 26.8036 85.008 26.0576 84.3169C24.5599 82.9347 23.9961 81.1903 24.1841 79.5007Z" fill="#749BC2" fill-opacity="0.5"/>
<path d="M92.0153 257.355C92.0466 256.899 92.0897 256.465 92.1112 255.994C92.1503 253.925 92.1915 251.73 92.2345 249.446C92.2306 247.116 92.029 244.755 91.4671 242.399C91.2067 239.899 90.6468 237.384 89.5465 234.819C87.9999 229.547 84.6775 226.26 82.0169 223.569C79.1429 220.949 75.983 219.198 74.3306 218.101C72.9015 219.456 70.2389 221.678 68.2145 225.669C65.9768 229.661 65.3954 235.375 67.6448 242.652C69.0838 246.153 70.838 249.234 72.7781 251.781C75.0022 254.186 77.3202 256.112 79.5481 257.6C82.2949 259.458 85.1689 260.447 87.6357 261.008C96.1658 269.995 105.377 276.541 116.834 281.949C106.675 274.989 98.8068 267.342 92.0153 257.355Z" fill="#749BC2" fill-opacity="0.5"/>
<path d="M45.52 331.455C48.9637 329.889 53.2395 327.998 56.5579 323.622C58.5 321.615 59.9174 319.465 61.053 317.22C62.4156 315.219 63.4434 313.085 64.2755 310.91C65.0488 308.759 65.7908 306.693 66.4897 304.745C66.6365 304.299 66.7521 303.876 66.8852 303.439C76.7857 296.523 86.8604 292.176 98.8302 289.286C86.2006 290.263 75.2625 293.104 64.0914 298.467C61.5874 298.114 58.549 298.016 55.3206 298.774C52.7089 299.373 49.8584 300.348 46.9237 301.805C44.2063 303.494 41.4693 305.749 38.8772 308.508C34.1864 314.51 32.6945 320.056 33.368 324.583C33.8398 329.033 35.5372 332.058 36.3908 333.832C38.3251 333.395 41.9 332.882 45.52 331.455Z" fill="#749BC2" fill-opacity="0.5"/>
<path d="M202.297 338.113C203.109 334.824 204.155 330.775 202.925 326.014C202.594 323.538 201.872 321.349 200.926 319.307C200.276 317.24 199.348 315.332 198.283 313.542C197.203 311.805 196.165 310.137 195.184 308.564C194.953 308.214 194.72 307.899 194.487 307.564C195.126 296.773 197.667 287.287 202.283 277.279C195.958 286.689 191.882 295.944 189.446 306.764C187.809 308.327 186.051 310.405 184.794 313.093C183.765 315.258 182.866 317.801 182.261 320.67C181.938 323.516 182.003 326.69 182.502 330.04C184.111 336.665 187.177 340.79 190.728 342.829C194.115 344.968 197.179 345.457 198.898 345.841C199.666 344.24 201.291 341.445 202.297 338.113Z" fill="#749BC2" fill-opacity="0.5"/>
<path d="M163.447 348.261C165.479 345.551 168.024 342.232 168.75 337.37C169.416 334.962 169.606 332.663 169.531 330.413C169.743 328.258 169.633 326.139 169.353 324.075C169.036 322.054 168.733 320.111 168.445 318.281C168.369 317.87 168.278 317.488 168.194 317.088C172.999 307.406 179.044 299.667 187.204 292.258C177.705 298.449 170.336 305.375 163.866 314.384C161.747 315.182 159.32 316.408 157.111 318.391C155.316 319.981 153.495 321.971 151.818 324.374C150.408 326.868 149.229 329.814 148.378 333.093C147.272 339.821 148.481 344.817 150.954 348.082C153.235 351.373 155.866 353.02 157.297 354.046C158.631 352.873 161.217 350.935 163.447 348.261Z" fill="#749BC2" fill-opacity="0.5"/>
<path d="M48.2236 283.125C47.3445 284.046 46.7161 284.944 46.3206 285.782C45.5277 287.459 45.6687 288.887 46.4361 289.887C47.2016 290.888 48.5779 291.481 50.2538 291.493C51.0937 291.497 52.008 291.354 52.981 291.023C64.1677 287.954 75.934 282.096 86.6489 281.445C71.3958 274.124 56.781 277.859 51.82 280.723C50.3615 281.494 49.1359 282.264 48.2236 283.125Z" fill="#749BC2" fill-opacity="0.5"/>
<path d="M61.3896 253.635C60.6868 253.277 59.9742 253.083 59.2753 253.025C57.8833 252.909 56.552 253.324 55.5888 254.138C54.6275 254.953 54.0441 256.18 54.1459 257.69C54.1968 258.441 54.418 259.264 54.8389 260.122C55.2814 260.955 55.9705 261.78 56.8593 262.609C60.4382 265.913 71.343 271.339 81.9404 270.345C73.4202 265.305 66.5151 257.786 63.6 255.107C62.8776 254.428 62.116 253.972 61.3896 253.635Z" fill="#749BC2" fill-opacity="0.5"/>
<path d="M124.937 86.9227C124.937 86.9227 125.303 87.4963 126.092 88.5986C126.979 89.5618 128.324 91.1574 130.689 92.336C135.09 95.071 141.839 95.0279 146.34 92.3497C148.401 91.3375 150.287 89.7576 151.986 87.8174C153.715 85.6638 155.105 83.2049 155.78 80.5129C156.53 77.6507 156.534 74.5084 155.886 71.4876C154.551 65.4361 150.653 59.8564 144.719 56.3031C132.41 48.9124 115.777 54.9894 107.908 66.1546C103.913 71.7225 101.898 78.1851 101.168 84.4148C97.9591 108.983 116.55 134.769 133.522 150.169C128.201 138.769 123.036 127.551 118.598 115.753C118.616 115.794 118.531 115.592 118.633 115.833C116.194 107.986 114.43 100.531 113.835 92.3379C113.852 90.2783 113.954 88.1874 114.326 86.1631C115.113 81.7561 116.552 77.4471 119.052 74.1247C119.428 73.6314 119.8 73.136 120.168 72.6348C123.905 68.5529 128.984 65.9255 134.64 66.0019C135.376 66.0548 136.11 66.2251 136.843 66.3073C136.269 66.1233 136.717 66.2662 136.604 66.2309C137.397 66.4463 138.213 66.6832 138.967 67.0102C142.046 68.4021 144.793 71.2311 145.952 74.2774C146.577 75.7927 146.821 77.3413 146.751 78.8351C146.743 79.0113 146.737 79.1875 146.735 79.3657C146.657 79.6554 146.843 79.0094 146.817 79.0955C146.586 80.5345 146.144 81.9049 145.514 83.2127C144.793 84.5753 143.845 85.8479 142.708 86.8013C141.835 87.7313 140.533 88.4478 139.36 88.9803C139.435 88.9686 139.153 89.0312 139.519 88.9568C134.558 90.7756 129.215 90.0297 124.937 86.9227Z" fill="#749BC2" fill-opacity="0.5"/>
<path d="M-35.1953 267.573C-32.2077 276.857 -27.65 285.999 -19.0808 293.327C-12.6652 298.65 -5.78747 301.24 2.27074 303.05C4.90004 303.437 7.62329 303.461 10.2859 303.477C15.6541 302.998 21.177 301.836 25.8326 298.801C30.5606 296.199 33.9828 292.296 36.9684 287.744C42.7595 278.425 42.8457 267.371 38.6247 258.829C36.5925 254.624 33.695 250.974 30.1612 248.328C26.7077 245.771 22.6943 244.352 18.489 243.529C10.607 242.353 2.76019 245.197 -1.27087 250.683C-5.27453 256.19 -4.6363 262.244 -3.1895 266.094C-1.70551 270.139 1.02169 272.418 2.94031 273.341C4.66511 274.163 5.77516 274.215 6.00813 274.272C5.90829 274.18 4.86283 273.82 3.44149 272.594C1.91442 271.328 0.305126 268.759 -0.182362 265.301C-0.683552 261.903 0.191582 257.367 3.30053 254.54C6.33705 251.793 11.6896 250.849 16.6898 252.323C19.1664 253.12 21.4354 254.42 23.3815 256.157C23.7339 256.409 22.9782 255.867 23.0702 255.942C25.1983 258.021 26.927 260.613 27.902 263.434C29.9479 268.747 28.783 275.455 25.5624 280.036C23.9688 281.872 22.4378 283.683 20.5368 285.216C19.924 285.5 19.3171 285.794 18.7161 286.103C16.1259 287.628 12.9073 288.015 9.70638 288.321C8.05793 288.198 6.38012 288.174 4.71796 287.873C-0.955677 286.08 -5.62498 284.456 -10.1396 280.502C-12.4028 278.298 -14.4369 275.864 -16.1206 273.18C-18.0021 270.002 -19.7269 266.64 -20.8369 262.962C-33.3667 226.862 -16.0364 189.877 7.41775 163.121C-25.9643 184.181 -48.3985 228.032 -35.1953 267.573Z" fill="#749BC2" fill-opacity="0.5"/>
<path d="M-3.87868 191.239C-8.0605 196.607 -10.0007 202.287 -11.2732 208.908C-11.5258 211.063 -11.4768 213.286 -11.42 215.458C-10.8954 219.828 -9.80878 224.303 -7.21472 228.028C-4.97307 231.822 -1.69968 234.515 2.09058 236.838C9.83946 241.327 18.8629 241.121 25.7268 237.462C29.1079 235.698 32.0113 233.241 34.0826 230.289C36.0835 227.409 37.1407 224.096 37.7065 220.645C38.4661 214.182 35.9484 207.85 31.3711 204.699C26.7762 201.57 21.8524 202.243 18.7434 203.522C15.4818 204.834 13.6904 207.116 12.9856 208.706C12.2691 210.341 12.3533 211.293 12.2828 211.271C12.3337 211.3 12.5784 210.368 13.6082 209.096C14.6028 207.818 16.6584 206.441 19.4678 205.956C22.2283 205.462 25.952 206.061 28.3366 208.526C30.6565 210.936 31.5591 215.28 30.4842 219.398C29.8969 221.439 28.8926 223.323 27.5241 224.954C27.3263 225.247 27.7492 224.619 27.6924 224.695C26.0479 226.485 23.9766 227.959 21.6977 228.826C17.4141 230.631 11.9108 229.848 8.09117 227.334C6.55236 226.081 5.03704 224.877 3.73708 223.364C3.49235 222.87 3.23588 222.383 2.96766 221.901C1.65791 219.824 1.2605 217.209 0.93159 214.605C0.990323 213.256 0.966825 211.888 1.17239 210.523C2.48998 205.854 3.69792 202.007 6.79904 198.228C8.54734 196.32 10.4855 194.593 12.6371 193.148C15.1842 191.533 17.884 190.039 20.8578 189.041C49.9994 177.909 80.619 191.119 103.043 209.585C85.0181 182.874 48.6681 165.67 16.7328 177.441C9.23256 180.113 1.88697 184.062 -3.87868 191.239Z" fill="#749BC2" fill-opacity="0.5"/>
<path d="M-28.8012 309.494C-27.9907 311.891 -26.7142 314.651 -24.5861 317.192C-22.8789 319.258 -20.7254 321.367 -18.1078 323.334C-15.3767 325.005 -12.1307 326.435 -8.50101 327.51C-1.03209 329.006 4.5926 327.845 8.33391 325.209C12.0968 322.79 14.0369 319.916 15.239 318.356C13.9782 316.822 11.9166 313.858 9.01522 311.269C6.0668 308.893 2.45863 305.924 -2.94288 304.925C-10.0437 302.701 -18.2057 303.341 -25.6551 304.743C-36.2623 299.01 -44.6612 291.968 -52.6097 282.585C-46.0629 293.429 -38.6116 301.926 -28.8012 309.494Z" fill="#749BC2" fill-opacity="0.5"/>
<path d="M57.3488 211.986C56.5539 213.664 56.6969 215.091 57.4624 216.091C58.2279 217.091 59.6042 217.685 61.28 217.696C62.1199 217.701 63.0362 217.558 64.0072 217.226C75.194 214.157 86.9622 208.299 97.6751 207.649C82.4221 200.327 67.8092 204.063 62.8463 206.927C61.3897 207.696 60.1622 208.468 59.2518 209.329C58.3708 210.249 57.7443 211.147 57.3488 211.986Z" fill="#749BC2" fill-opacity="0.5"/>
<path d="M52.752 206.011C56.2877 204.227 64.9783 198.87 74.546 196.339C64.6201 192.5 52.6522 194.753 48.3079 196.957C47.2272 197.513 46.3403 198.118 45.6864 198.802C45.0481 199.512 44.6116 200.243 44.359 200.953C43.85 202.376 44.0771 203.715 44.7799 204.763C45.4847 205.809 46.6516 206.57 48.024 206.839C48.7111 206.972 49.4512 206.979 50.2245 206.825C51.0154 206.7 51.873 206.469 52.752 206.011Z" fill="#749BC2" fill-opacity="0.5"/>
<path d="M399.605 15.1799C397.342 12.9735 395.308 10.54 393.624 7.85586C391.745 4.67838 390.018 1.31687 388.908 -2.3618C376.378 -38.4593 393.709 -75.4456 417.165 -102.203C383.781 -81.1428 361.349 -37.2924 374.55 2.25074C377.539 11.5345 382.095 20.6754 390.664 28.0053C397.08 33.3285 403.958 35.9167 412.016 37.7257C414.645 38.1153 417.368 38.1388 420.031 38.1525C425.399 37.6748 430.922 36.5138 435.578 33.4773C440.306 30.8754 443.728 26.9716 446.714 22.4198C452.505 13.1007 452.591 2.04908 448.372 -6.49466C446.338 -10.7 443.442 -14.3493 439.906 -16.9942C436.455 -19.553 432.439 -20.9724 428.234 -21.7947C420.352 -22.9713 412.505 -20.1267 408.474 -14.641C404.471 -9.13374 405.109 -3.0803 406.556 0.772606C408.04 4.81542 410.767 7.09427 412.685 8.01834C414.41 8.84061 415.52 8.89151 415.753 8.94829C415.653 8.85627 414.61 8.49605 413.187 7.27048C411.66 6.0038 410.05 3.43716 409.563 -0.0202789C409.062 -3.41898 409.937 -7.95713 413.046 -10.7822C416.084 -13.5309 421.437 -14.4726 426.435 -13.0004C428.913 -12.2035 431.181 -10.9036 433.127 -9.16703C433.479 -8.91252 432.723 -9.45678 432.815 -9.38239C434.943 -7.30127 436.672 -4.71112 437.647 -1.888C439.695 3.42345 438.53 10.1327 435.308 14.7139C433.716 16.5484 432.185 18.3593 430.282 19.8942C429.669 20.1761 429.062 20.4698 428.463 20.7792C425.871 22.3043 422.652 22.6938 419.451 22.9993C417.805 22.874 416.127 22.8505 414.463 22.549C408.789 20.7556 404.12 19.1326 399.605 15.1799Z" fill="#749BC2" fill-opacity="0.5"/>
<path d="M357.68 -1.43967C342.196 30.7599 350.677 62.7421 369.912 90.9772C392.401 115.692 419.88 131.061 453.139 135.965C395.332 109.825 345.587 68.13 357.68 -1.43967Z" fill="#749BC2" fill-opacity="0.5"/>
<path d="M344.044 32.1304C326.379 62.8792 335.165 101.774 364.785 121.589C357.261 107.413 351.162 93.9139 346.566 78.5728C343.901 62.9262 343.507 48.0295 344.044 32.1304Z" fill="#749BC2" fill-opacity="0.5"/>
<path d="M295.632 -4.88928C296.844 -3.33676 298.805 -0.476465 302.584 1.9179C306.345 4.52566 311.977 5.64551 319.436 4.0969C323.058 2.99663 326.293 1.54202 329.012 -0.147544C331.616 -2.13273 333.754 -4.25692 335.447 -6.33412C337.558 -8.89097 338.813 -11.6593 339.607 -14.0595C349.363 -21.7007 356.756 -30.2484 363.224 -41.1395C355.342 -31.7011 346.994 -24.5982 336.428 -18.7895C328.969 -20.1404 320.803 -20.7218 313.718 -18.4488C308.324 -17.4112 304.736 -14.4158 301.805 -12.0195C298.923 -9.40784 296.881 -6.43005 295.632 -4.88928Z" fill="#749BC2" fill-opacity="0.5"/>
<path d="M379.057 125.291C374.912 131.636 371.198 138.933 370.536 146.343C369.393 151.717 370.756 156.187 371.823 159.819C373.107 163.491 375.057 166.53 375.991 168.28C377.892 167.767 381.289 167.074 384.965 164.523C388.83 162.076 392.054 157.32 393.531 149.848C393.926 146.083 393.844 142.537 393.347 139.375C392.53 136.204 391.406 133.408 390.151 131.041C388.617 128.103 386.555 125.867 384.652 124.203C381.41 112.241 376.412 102.107 368.896 91.9091C374.524 102.843 377.819 113.296 379.057 125.291Z" fill="#749BC2" fill-opacity="0.5"/>
<path d="M385.457 42.8315C374.847 37.0972 366.451 30.0551 358.5 20.6714C365.049 31.5156 372.5 40.0123 382.311 47.583C383.121 49.9794 384.398 52.7379 386.526 55.2791C388.233 57.3445 390.384 59.455 393.004 61.4206C395.735 63.0906 398.979 64.5217 402.609 65.5965C410.078 67.0923 415.704 65.9313 419.446 63.2962C423.208 60.8763 425.149 58.0023 426.349 56.442C425.09 54.909 423.026 51.9469 420.125 49.3548C417.179 46.98 413.568 44.0101 408.167 43.0116C401.066 40.7876 392.906 41.4278 385.457 42.8315Z" fill="#749BC2" fill-opacity="0.5"/>
<path d="M398.413 86.1024C399.815 88.207 401.761 90.5446 404.475 92.4495C406.658 94.004 409.281 95.4841 412.319 96.7077C415.389 97.6161 418.894 98.1584 422.676 98.2602C430.278 97.7747 435.413 95.2002 438.348 91.6879C441.357 88.3773 442.489 85.1 443.246 83.2832C441.633 82.1281 438.875 79.7983 435.402 78.0442C431.94 76.5112 427.688 74.575 422.21 75.0057C414.776 74.6925 407.057 77.4196 400.224 80.6989C388.495 77.9012 378.563 73.2691 368.459 66.2583C377.587 75.0429 386.98 81.3234 398.413 86.1024Z" fill="#749BC2" fill-opacity="0.5"/>
<path d="M263.403 257.658C261.142 255.452 259.108 253.019 257.424 250.337C255.543 247.157 253.818 243.796 252.708 240.116C240.178 204.019 257.508 167.033 280.962 140.276C247.578 161.338 225.146 205.186 238.349 244.729C241.337 254.013 245.893 263.154 254.464 270.484C260.879 275.807 267.757 278.395 275.815 280.204C278.445 280.594 281.168 280.617 283.831 280.631C289.199 280.154 294.72 278.992 299.377 275.956C304.105 273.356 307.527 269.45 310.513 264.898C316.302 255.579 316.39 244.528 312.169 235.986C310.137 231.778 307.24 228.131 303.704 225.484C300.252 222.925 296.239 221.506 292.034 220.684C284.152 219.509 276.305 222.354 272.272 227.837C268.27 233.344 268.906 239.398 270.355 243.251C271.837 247.294 274.566 249.573 276.485 250.497C278.21 251.319 279.32 251.37 279.553 251.427C279.453 251.335 278.407 250.974 276.986 249.749C275.457 248.484 273.85 245.916 273.362 242.458C272.861 239.059 273.736 234.524 276.845 231.696C279.882 228.948 285.234 228.006 290.234 229.478C292.711 230.275 294.978 231.577 296.926 233.312C297.277 233.566 296.523 233.024 296.615 233.096C298.743 235.178 300.472 237.768 301.447 240.591C303.492 245.904 302.328 252.611 299.107 257.193C297.513 259.029 295.982 260.838 294.081 262.373C293.469 262.655 292.862 262.951 292.261 263.26C289.671 264.785 286.452 265.172 283.251 265.478C281.603 265.355 279.925 265.331 278.263 265.028C272.589 263.234 267.92 261.611 263.403 257.658Z" fill="#749BC2" fill-opacity="0.5"/>
<path d="M229.561 271.359C228.623 273.555 227.783 276.302 227.679 279.433C227.58 281.96 227.768 284.803 228.372 287.836C229.242 290.731 230.626 293.783 232.501 296.825C236.818 302.583 241.509 305.311 245.803 305.812C249.977 306.48 253.152 305.677 254.981 305.336C255.061 303.463 255.474 300.078 255.065 296.426C254.485 292.898 253.816 288.535 250.642 284.43C249.293 282.162 247.68 280.34 245.914 278.753C244.424 277.017 242.731 275.553 240.953 274.258C239.181 273.023 237.48 271.837 235.877 270.719C235.507 270.474 235.148 270.265 234.784 270.038C230.916 259.303 229.436 249.044 229.753 237.417C227.529 249.176 227.423 259.849 229.561 271.359Z" fill="#749BC2" fill-opacity="0.5"/>
<path d="M271.643 325.079C273.27 324.814 274.68 324.475 275.817 323.951C276.947 323.359 277.828 322.709 278.47 322.042C279.758 320.705 280.081 319.309 279.674 318.116C279.269 316.922 278.153 315.922 276.569 315.374C275.776 315.102 274.862 314.945 273.836 314.947C262.254 314.279 249.233 316.069 238.872 313.259C250.985 325.072 266.026 326.204 271.643 325.079Z" fill="#749BC2" fill-opacity="0.5"/>
<path d="M283.214 341.303C284.396 341.018 285.401 340.643 286.197 340.136C286.986 339.595 287.584 338.99 287.999 338.36C288.833 337.099 288.929 335.742 288.494 334.56C288.059 333.378 287.106 332.358 285.837 331.772C285.201 331.478 284.484 331.294 283.697 331.261C282.899 331.197 282.012 331.216 281.048 331.453C277.19 332.346 267.475 335.482 257.579 335.666C266.308 341.755 278.47 342.41 283.214 341.303Z" fill="#749BC2" fill-opacity="0.5"/>
<path d="M324.681 276.05C325.674 275.085 326.439 274.131 326.925 273.172C327.383 272.187 327.616 271.247 327.655 270.39C327.737 268.671 327.046 267.287 325.932 266.382C324.82 265.478 323.295 265.035 321.713 265.198C320.921 265.28 320.114 265.517 319.323 265.941C318.505 266.341 317.647 266.877 316.842 267.667C313.585 270.782 305.9 279.494 296.321 285.422C308.402 286.311 320.684 279.889 324.681 276.05Z" fill="#749BC2" fill-opacity="0.5"/>
<path d="M344.989 288.67C346.242 288.082 347.278 287.433 348.049 286.685C348.805 285.902 349.332 285.089 349.649 284.292C350.289 282.697 350.088 281.162 349.332 279.942C348.576 278.724 347.28 277.806 345.729 277.443C344.954 277.264 344.114 277.222 343.227 277.366C342.323 277.475 341.338 277.702 340.32 278.186C336.225 280.064 326.113 285.786 315.124 288.259C326.25 293.048 339.956 290.992 344.989 288.67Z" fill="#749BC2" fill-opacity="0.5"/>
<path d="M408.073 322.02C406.66 320.108 404.851 318.134 402.623 316.265C400.281 314.653 397.472 313.23 394.306 312.102C387.753 310.418 382.708 311.178 379.266 313.333C375.813 315.301 373.955 317.756 372.813 319.082C373.859 320.503 375.547 323.229 377.994 325.666C380.494 327.914 383.552 330.719 388.296 331.864C390.617 332.731 392.871 333.119 395.101 333.245C397.215 333.642 399.318 333.718 401.383 333.622C403.408 333.487 405.354 333.356 407.188 333.232C407.603 333.193 407.987 333.137 408.39 333.089C417.539 338.687 424.659 345.339 431.267 354.054C425.981 344.122 419.781 336.232 411.442 329.049C410.839 326.886 409.839 324.377 408.073 322.02Z" fill="#749BC2" fill-opacity="0.5"/>
<path d="M329.192 348.654C331.397 349.932 334.014 351.103 337 351.994C339.987 352.582 343.355 352.787 346.947 352.55C354.105 351.418 358.741 348.525 361.21 344.94C363.769 341.538 364.55 338.333 365.108 336.545C363.477 335.594 360.658 333.63 357.214 332.275C353.802 331.13 349.6 329.672 344.451 330.564C341.798 330.699 339.418 331.275 337.172 332.101C334.925 332.61 332.826 333.428 330.835 334.401C328.903 335.396 327.045 336.353 325.294 337.254C324.903 337.469 324.548 337.689 324.175 337.906C312.798 336.295 302.968 332.782 292.766 327.026C302.187 334.542 311.639 339.662 322.89 343.178C324.406 345.048 326.453 347.088 329.192 348.654Z" fill="#749BC2" fill-opacity="0.5"/>
<path d="M454.525 215.235C429.759 202.032 403.531 183.572 373.921 187.504C367.332 188.298 360.855 190.321 354.894 193.148C348.786 196.225 343.016 199.967 338.486 205.162C333.83 210.374 330.551 216.618 328.65 223.12C326.737 229.629 326.228 236.469 327.225 243.108C328.201 249.729 330.707 256.231 334.868 261.582C338.977 266.942 344.672 271.032 350.692 273.103C356.705 275.241 362.809 275.711 368.397 275.249C371.345 275.024 374.231 274.494 377.046 273.555C379.828 272.593 382.403 271.296 384.693 269.71C389.28 266.552 392.863 262.449 395.251 257.935C397.624 253.418 398.815 248.464 398.58 243.817C398.362 239.326 397.131 235.017 394.453 231.379C391.966 228.061 388.867 225.782 385.739 224.414C382.616 223.023 379.47 222.471 376.664 222.61C373.851 222.714 371.412 223.599 369.616 224.742C367.813 225.907 366.627 227.27 365.814 228.415C365.019 229.596 364.387 230.884 363.923 232.229C364.659 231.054 365.527 229.983 366.5 228.997C367.461 228.086 368.769 227.098 370.48 226.42C372.199 225.784 374.288 225.429 376.574 225.723C381.091 226.225 386.516 229.402 389.437 234.648C390.929 237.441 391.346 240.567 391.029 243.708C390.727 247.018 389.578 250.382 387.526 253.39C385.488 256.392 382.592 259.033 379.188 260.847C377.485 261.746 375.678 262.469 373.818 262.933C372.473 263.26 371.083 263.438 369.698 263.504C369.624 263.513 369.928 263.479 369.751 263.493C369.133 263.503 368.516 263.51 367.897 263.518C363.522 263.473 359.185 262.796 355.399 261.091C351.611 259.411 348.378 256.807 346.041 253.357C343.713 249.915 342.213 245.701 341.741 241.202C341.277 236.706 341.783 231.972 343.19 227.522C344.602 223.065 346.992 218.943 350.066 215.507C353.277 211.856 357.443 209.424 361.724 207.234C370.767 202.754 380.829 201.541 390.982 203.027C418.473 206.966 442.526 224.453 468.572 233.216C490.059 240.441 512.227 243.89 534.857 241.932C506.252 238.288 479.919 228.787 454.525 215.235Z" fill="#749BC2" fill-opacity="0.5"/>
<path d="M364.785 165.933C356.476 161.97 348.245 158.295 339.236 156.187C327.833 153.376 315.844 152.72 305.707 146.171C299.759 142.551 294.831 136.458 292.801 129.818C290.403 122.411 291.039 114.702 294.524 107.763C296.258 104.406 298.543 101.395 301.531 98.8103C313.78 88.209 331.667 91.8191 339.776 105.475C341.485 108.417 342.593 111.712 342.863 114.997C343.202 118.204 342.542 121.333 341.479 124.363C340.312 127.133 338.813 129.653 336.665 131.574C333.777 134.775 329.554 135.797 325.474 135.489C324.233 135.292 323.068 134.949 322.021 134.43C319.91 133.373 318.381 131.873 317.367 130.054C316.609 128.437 316.302 127.085 316.032 125.281C315.901 122.327 316.69 120.187 317.353 118.883C317.71 118.228 318.095 117.593 318.512 116.979C318.321 117.677 318.154 118.384 318.013 119.099C317.725 120.454 317.733 122.558 318.397 124.868C319.002 126.241 319.401 127.057 320.323 128.183C321.148 128.966 322.354 129.798 323.701 130.078C324.384 130.231 325.092 130.276 325.809 130.248C326.966 130.039 328.045 129.771 329.092 129.224C328.644 129.391 328.985 129.258 328.893 129.289C329.817 128.688 331.003 127.78 331.549 126.797C332.626 125.473 333.348 123.656 333.793 121.828C334.049 120.168 334.237 118.662 334.073 116.965C334.071 116.871 334.079 117.548 334.071 117.241C333.995 116.902 333.922 116.562 333.854 116.221C333.425 114.341 332.618 112.509 331.375 110.847C330.165 109.271 328.732 107.902 327.134 106.728C327.197 106.78 326.915 106.549 327.264 106.835C324.63 105.073 321.768 104.022 318.599 103.861C319.579 103.959 318.845 103.891 319.051 103.914C315.437 103.969 311.995 105.494 309.327 107.894C307.756 109.281 306.308 111.187 305.288 113.231C303.097 117.376 302.711 121.965 303.962 126.321C304.673 129.219 306.394 132.1 308.383 134.285C308.438 134.35 308.062 133.937 308.238 134.129C309.338 135.301 310.507 136.476 311.815 137.412C320.595 144.094 332.072 146.03 342.041 150.339C350.587 154.36 357.989 159.36 364.785 165.933Z" fill="#749BC2" fill-opacity="0.5"/>
<path d="M178.993 327.475C179.428 336.672 180.082 345.66 182.48 354.597C185.393 365.975 190.482 376.85 189.501 388.878C189.123 395.832 186.083 403.052 181.19 407.983C175.796 413.598 168.701 416.679 160.941 416.886C157.162 416.945 153.427 416.356 149.738 414.944C134.607 409.159 129.334 391.69 137.535 378.091C139.321 375.192 141.702 372.658 144.468 370.869C147.133 369.054 150.202 368.157 153.378 367.662C156.369 367.382 159.298 367.511 162.006 368.496C166.191 369.528 169.089 372.766 170.745 376.507C171.158 377.694 171.407 378.884 171.444 380.051C171.511 382.41 170.912 384.467 169.788 386.22C168.721 387.651 167.674 388.563 166.213 389.654C163.672 391.165 161.413 391.48 159.95 391.512C159.204 391.508 158.462 391.469 157.722 391.391C158.431 391.23 159.132 391.042 159.827 390.829C161.156 390.442 163.008 389.44 164.731 387.764C165.653 386.582 166.186 385.844 166.742 384.501C167.043 383.403 167.204 381.948 166.814 380.628C166.628 379.955 166.33 379.307 165.968 378.688C165.236 377.768 164.49 376.946 163.513 376.281C163.873 376.597 163.594 376.359 163.666 376.425C162.699 375.897 161.338 375.278 160.212 375.262C158.539 374.939 156.596 375.163 154.776 375.632C153.19 376.192 151.774 376.738 150.355 377.686C150.275 377.731 150.868 377.404 150.6 377.557C150.337 377.784 150.073 378.009 149.805 378.23C148.352 379.495 147.117 381.073 146.24 382.955C145.421 384.766 144.895 386.675 144.615 388.64C144.63 388.557 144.562 388.914 144.648 388.473C144.339 391.627 144.766 394.646 146.124 397.514C145.746 396.604 146.032 397.285 145.954 397.091C147.712 400.251 150.684 402.563 154.059 403.779C156.023 404.508 158.388 404.883 160.672 404.817C165.359 404.789 169.586 402.959 172.834 399.797C175.05 397.802 176.777 394.924 177.764 392.139C177.793 392.06 177.607 392.587 177.693 392.34C178.206 390.816 178.69 389.231 178.896 387.637C180.634 376.74 176.916 365.712 176.002 354.89C175.507 345.459 176.415 336.571 178.993 327.475Z" fill="#749BC2" fill-opacity="0.5"/>
<path d="M-7.30872 -82.1824C-10.2806 -85.9491 -13.5286 -89.3713 -16.9371 -92.3354C-20.3612 -95.2858 -23.8852 -97.8367 -27.4053 -99.9276C-37.2353 -105.732 -49.35 -109.936 -60.9031 -108.575C-47.2454 -92.3256 -33.7504 -76.4206 -23.8578 -57.4772C-14.206 -38.4182 -7.40268 -23.7623 -4.09012 1.6947C-3.61047 -1.37314 -3.14844 -5.13402 -2.92721 -9.45287C-2.58068 -15.4358 -2.77841 -22.4369 -3.67703 -29.8157C-4.21934 -33.4924 -4.81841 -37.2886 -5.82471 -41.0456C-6.23976 -42.9446 -6.87995 -44.8005 -7.41442 -46.6878C-8.04091 -48.5458 -8.6811 -50.4076 -9.39373 -52.2382C-10.8953 -55.8679 -12.4909 -59.4604 -14.4605 -62.7749C-14.9401 -63.6089 -15.4198 -64.4371 -15.8955 -65.2633C-16.4104 -66.064 -16.9253 -66.8608 -17.4343 -67.6537C-18.4171 -69.2591 -19.49 -70.7764 -20.5511 -72.2662C-21.532 -73.8109 -22.6733 -75.2009 -23.7129 -76.6223C-24.7368 -78.0593 -25.8293 -79.3925 -26.9002 -80.6925C-27.9593 -82.0003 -28.9754 -83.2924 -30.0835 -84.4318C-31.1447 -85.6124 -32.1451 -86.7871 -33.1572 -87.8678C-35.2795 -89.9175 -37.0787 -92.0202 -38.8857 -93.5962C-40.6594 -95.2329 -42.12 -96.7717 -43.4982 -97.9112C-46.1686 -100.253 -47.635 -101.676 -47.635 -101.676L-47.3041 -102.152C-47.3041 -102.152 -45.4541 -101.288 -42.3177 -99.6242C-40.7241 -98.8529 -38.919 -97.6077 -36.7909 -96.2627C-35.7082 -95.6029 -34.6158 -94.8257 -33.5116 -93.9642C-32.3878 -93.1185 -31.2014 -92.2258 -29.9915 -91.2606C-27.6637 -89.2284 -25.0814 -87.0533 -22.691 -84.4044C-22.0743 -83.7584 -21.4497 -83.1025 -20.8193 -82.4388C-20.2164 -81.7497 -19.6466 -81.0175 -19.0475 -80.2951C-17.8455 -78.8542 -16.6649 -77.3408 -15.5862 -75.7139C-14.4996 -74.0928 -13.3739 -72.46 -12.4361 -70.6785C-11.9486 -69.8014 -11.4553 -68.9204 -10.9619 -68.0355C-10.5234 -67.1212 -10.0809 -66.201 -9.63845 -65.2789C-7.84513 -61.6041 -6.35332 -57.7278 -5.0279 -53.8142C-4.38379 -51.8525 -3.81604 -49.8634 -3.26982 -47.886C-2.81366 -45.8813 -2.25766 -43.9137 -1.92679 -41.9128C-1.09473 -37.9464 -0.683598 -33.9799 -0.331196 -30.1583C-0.102139 -26.325 0.0701599 -22.6189 -0.10017 -19.1086C-0.207848 -15.6022 -0.495651 -12.2995 -0.869587 -9.27079C-1.33945 -5.45312 -1.94441 -2.13274 -2.56111 0.706039C8.94279 -15.5729 11.02 -37.3767 5.83189 -56.2947C4.50451 -60.917 2.72489 -65.508 0.524353 -69.8895C-1.74276 -74.2338 -4.34073 -78.4097 -7.30872 -82.1824Z" fill="#749BC2" fill-opacity="0.5"/>
<path d="M288.856 174.427C284.749 177.019 280.96 179.927 277.612 183.043C274.278 186.18 271.336 189.457 268.859 192.78C261.972 202.061 256.455 213.812 256.598 225.59C274.408 213.562 291.855 201.662 311.977 193.709C332.191 186.011 347.668 180.718 373.651 180.084C370.613 179.275 366.875 178.41 362.551 177.728C356.564 176.746 349.494 176.203 341.969 176.323C338.208 176.479 334.323 176.681 330.433 177.295C328.476 177.513 326.541 177.959 324.585 178.298C322.647 178.731 320.703 179.177 318.787 179.702C314.971 180.829 311.186 182.053 307.639 183.686C306.75 184.081 305.863 184.475 304.982 184.867C304.121 185.301 303.263 185.734 302.412 186.164C300.691 186.983 299.05 187.903 297.437 188.811C295.779 189.636 294.257 190.638 292.715 191.534C291.16 192.412 289.702 193.371 288.278 194.31C286.849 195.239 285.442 196.124 284.177 197.12C282.875 198.064 281.587 198.945 280.391 199.849C278.102 201.768 275.794 203.358 274.016 205.01C272.18 206.623 270.474 207.929 269.182 209.197C266.543 211.637 264.954 212.962 264.954 212.962L264.507 212.58C264.507 212.58 265.576 210.807 267.583 207.825C268.528 206.304 269.975 204.619 271.553 202.617C272.332 201.598 273.231 200.581 274.216 199.56C275.187 198.518 276.211 197.419 277.311 196.302C279.604 194.176 282.068 191.804 284.989 189.678C285.706 189.126 286.43 188.569 287.164 188.003C287.924 187.468 288.721 186.973 289.512 186.448C291.092 185.389 292.738 184.361 294.492 183.449C296.239 182.525 298.005 181.564 299.896 180.809C300.83 180.41 301.77 180.009 302.715 179.606C303.682 179.259 304.653 178.913 305.628 178.564C309.518 177.149 313.581 176.058 317.661 175.138C319.707 174.697 321.768 174.34 323.818 173.997C325.883 173.75 327.923 173.4 329.975 173.28C334.055 172.861 338.092 172.869 341.978 172.918C345.863 173.095 349.612 173.316 353.128 173.858C356.648 174.337 359.941 174.977 362.952 175.676C366.746 176.554 370.025 177.515 372.817 178.439C357.648 165.128 335.913 160.725 316.316 163.942C311.521 164.787 306.711 166.091 302.065 167.845C297.449 169.666 292.969 171.839 288.856 174.427Z" fill="#749BC2" fill-opacity="0.5"/>
<path d="M328.83 325.799C333.673 325.44 338.386 324.656 342.805 323.475C347.219 322.273 351.358 320.762 355.105 318.993C365.546 314.035 375.938 306.253 381.343 295.788C359.97 298.04 338.977 300.349 317.479 297.916C296.018 295.215 279.868 292.619 256.631 280.972C258.935 283.113 261.827 285.633 265.325 288.265C270.149 291.947 276.134 295.747 282.836 299.175C286.229 300.804 289.751 302.45 293.474 303.737C295.305 304.463 297.224 304.978 299.109 305.599C301.024 306.127 302.948 306.646 304.888 307.085C308.784 307.879 312.702 308.578 316.6 308.804C317.571 308.872 318.538 308.941 319.499 309.009C320.464 309.03 321.424 309.05 322.377 309.072C324.282 309.156 326.163 309.117 328.013 309.072C329.864 309.123 331.678 308.952 333.46 308.886C335.246 308.84 336.984 308.68 338.681 308.519C340.379 308.371 342.037 308.249 343.621 307.966C345.215 307.745 346.767 307.572 348.247 307.336C351.168 306.717 353.952 306.397 356.299 305.773C358.678 305.213 360.796 304.861 362.533 304.348C366.01 303.435 368.034 303.01 368.034 303.01L368.248 303.558C368.248 303.558 366.474 304.621 363.3 306.309C361.75 307.21 359.683 308.018 357.349 309.042C356.182 309.577 354.911 310.053 353.562 310.491C352.216 310.955 350.796 311.445 349.298 311.914C346.276 312.713 342.987 313.649 339.41 314.154C338.519 314.303 337.614 314.455 336.7 314.611C335.782 314.726 334.844 314.788 333.899 314.881C332.007 315.072 330.071 315.207 328.094 315.19C326.116 315.184 324.108 315.202 322.083 314.979C321.071 314.892 320.053 314.806 319.029 314.718C318.013 314.569 316.993 314.419 315.967 314.267C311.87 313.69 307.77 312.746 303.737 311.64C301.724 311.068 299.735 310.417 297.766 309.755C295.826 309.003 293.858 308.355 291.994 307.495C288.194 305.947 284.633 304.046 281.227 302.176C277.881 300.197 274.674 298.24 271.827 296.109C268.943 294.032 266.336 291.919 264.008 289.889C261.069 287.33 258.626 284.942 256.596 282.816C263.734 301.693 280.853 315.791 299.663 322.157C304.293 323.661 309.154 324.771 314.078 325.405C319.008 325.965 323.982 326.153 328.83 325.799Z" fill="#749BC2" fill-opacity="0.5"/>
<path d="M19.4345 124.254C24.2546 124.855 28.9199 125.875 33.276 127.272C37.6242 128.694 41.6827 130.409 45.3379 132.363C55.5163 137.837 65.5069 146.128 70.3837 156.849C49.1497 153.534 28.2993 150.178 6.70503 151.535C-14.8638 153.162 -31.1232 154.95 -54.9121 165.42C-52.504 163.397 -49.491 161.027 -45.8652 158.571C-40.8631 155.136 -34.6961 151.639 -27.8321 148.548C-24.3629 147.091 -20.7606 145.623 -16.9782 144.524C-15.1144 143.89 -13.1723 143.471 -11.2595 142.946C-9.32133 142.514 -7.37139 142.093 -5.41362 141.75C-1.48044 141.151 2.46643 140.648 6.37024 140.619C7.34325 140.597 8.31237 140.578 9.27756 140.558C10.2408 140.585 11.2001 140.613 12.1555 140.638C14.0604 140.648 15.9379 140.783 17.7821 140.92C19.6342 140.961 21.4373 141.222 23.215 141.378C24.9946 141.511 26.7233 141.758 28.4109 142.005C30.0985 142.238 31.7489 142.441 33.3171 142.804C34.897 143.103 36.4378 143.356 37.9042 143.665C40.7919 144.428 43.5563 144.887 45.8684 145.627C48.2158 146.306 50.3145 146.762 52.0237 147.361C55.4498 148.446 57.4526 148.971 57.4526 148.971L57.6934 148.436C57.6934 148.436 55.9725 147.285 52.8871 145.439C51.3854 144.464 49.3611 143.553 47.0803 142.414C45.9428 141.821 44.6977 141.284 43.3703 140.777C42.0488 140.247 40.6549 139.687 39.1846 139.144C36.2048 138.195 32.9667 137.097 29.4192 136.413C28.5362 136.22 27.6415 136.022 26.737 135.822C25.8227 135.662 24.8908 135.552 23.9511 135.411C22.0716 135.125 20.1432 134.896 18.1678 134.814C16.1944 134.72 14.1896 134.602 12.1555 134.724C11.1394 134.759 10.1194 134.796 9.09351 134.831C8.07155 134.929 7.04372 135.029 6.01197 135.129C1.88889 135.501 -2.2518 136.239 -6.33572 137.144C-8.37377 137.613 -10.3923 138.166 -12.3931 138.727C-14.3665 139.381 -16.3635 139.931 -18.2703 140.695C-22.1428 142.052 -25.7941 143.775 -29.2887 145.472C-32.7305 147.281 -36.0313 149.076 -38.9817 151.061C-41.9634 152.992 -44.6729 154.971 -47.1006 156.884C-50.1625 159.292 -52.7213 161.555 -54.8553 163.578C-46.7854 145.08 -28.9833 131.856 -9.87932 126.436C-5.17869 125.164 -0.268589 124.299 4.68067 123.911C9.6319 123.598 14.6105 123.658 19.4345 124.254Z" fill="#749BC2" fill-opacity="0.5"/>
<path d="M-39.8332 356.301C-17.3442 381.016 10.1352 396.384 43.3939 401.289C-14.4134 375.149 -64.1578 333.452 -52.0654 263.884C-67.5503 296.084 -59.0684 328.066 -39.8332 356.301Z" fill="#749BC2" fill-opacity="0.5"/>
<path d="M48.3137 385.543C51.0644 385.114 54.0226 384.239 57.0356 382.911C62.8326 379.702 65.9122 375.769 66.9126 371.916C68.0481 368.195 67.7192 365.197 67.6389 363.486C65.9396 363.176 62.905 362.372 59.522 362.284C56.231 362.367 52.1666 362.425 48.0201 364.8C42.0488 367.323 36.9977 372.338 32.8492 377.453C22.5768 379.616 13.0424 379.663 2.50366 377.909C12.9171 381.414 22.6512 382.87 33.4346 382.375C35.32 383.508 37.7202 384.623 40.5609 385.112C42.8554 385.521 45.4691 385.711 48.3137 385.543Z" fill="#749BC2" fill-opacity="0.5"/>
<path d="M5.72608 361.704C8.86244 362.591 12.4354 363.102 16.2863 363.161C24.0176 362.576 29.2116 359.893 32.1561 356.285C35.1789 352.879 36.2909 349.529 37.0388 347.671C35.3844 346.514 32.5496 344.177 28.9943 342.434C25.4546 340.917 21.1005 338.996 15.5326 339.5C7.95011 339.27 0.132717 342.14 -6.77432 345.559C-18.7559 342.849 -28.9227 338.248 -39.2754 331.243C-29.9074 340.049 -20.2654 346.344 -8.55396 351.08C-7.10129 353.206 -5.09261 355.559 -2.30864 357.466C-0.0689468 359.021 2.62105 360.497 5.72608 361.704Z" fill="#749BC2" fill-opacity="0.5"/>
<path d="M184.119 284.145C178.506 287.409 172.036 290.873 164.506 292.207C145.488 297.47 126.457 284.933 106.869 291.793C101.207 293.443 95.6568 296.08 90.6018 299.712C85.3784 303.58 81.0458 307.619 77.6373 313.269C73.9587 319.109 71.6309 324.971 70.5737 331.59C69.5674 338.072 69.5067 344.965 71.5565 351.55C73.5848 358.193 77.3143 363.788 81.9914 368.957C86.833 373.659 92.6574 377.289 99.122 379.418C112.03 382.725 126.919 380.628 135.913 369.373C140.325 364.727 143.311 358.834 144.631 352.653C145.169 349.645 145.269 346.577 144.922 343.552C144.382 340.007 143.515 337.143 142.195 334.507C137.032 323.888 126.842 317.439 116.64 316.906C105.906 316.576 98.0256 322.504 94.2824 329.485C90.22 336.486 92.0016 344.378 95.1967 348.507C98.3878 352.82 102.36 354.69 105.036 355.03C107.701 355.449 109.113 355.107 109.099 355.207C109.128 355.114 107.629 355.132 105.277 354.216C102.871 353.433 99.8816 350.852 97.8632 346.908C95.8995 342.978 95.7801 337.215 99.3706 332.634C101.076 330.37 103.476 328.288 106.428 327.099C107.811 326.617 108.887 326.134 111.129 325.791C112.415 325.566 114.25 325.645 115.812 325.844C122.306 326.922 128.847 332.277 131.525 339.237C132.255 340.948 132.496 342.863 132.67 344.171C132.678 345.018 132.688 345.868 132.696 346.717C132.7 346.843 132.68 346.07 132.678 346.436C132.428 347.585 132.212 348.75 132.044 349.911C130.801 353.407 129.072 356.983 126.043 359.774C122.541 364.105 115.865 366.102 110.459 366.288C111.898 366.161 110.804 366.245 111.102 366.213C108.617 365.966 106.111 365.616 103.693 365.031C99.7544 363.617 96.0424 361.246 92.9413 358.175C91.2733 356.305 89.7893 354.296 88.4913 352.153C87.8922 350.704 87.2951 349.255 86.696 347.804L86.5433 347.135C83.9923 339.004 85.6721 328.841 90.22 321.58C90.8856 320.069 92.8043 317.866 94.4096 315.824C95.9347 314.234 97.5499 312.787 99.2453 311.372C102.777 308.535 106.851 306.311 111.156 304.837C129.223 297.897 148.791 307.811 166.683 300.874C175.554 298.3 182.228 293.292 187.729 288.877C195.811 280.647 202.41 272.303 207.309 261.735C200.662 270.521 192.843 277.515 184.119 284.145Z" fill="#749BC2" fill-opacity="0.5"/>
<path d="M224.163 240.542C207.8 270.083 214.063 300.722 230.677 328.412C250.554 352.957 275.647 368.954 306.762 375.391C253.638 347.579 208.967 305.528 224.163 240.542Z" fill="#749BC2" fill-opacity="0.5"/>
<path d="M257.33 392.328C257.724 388.563 257.643 385.018 257.144 381.854C256.33 378.683 255.204 375.887 253.951 373.52C252.416 370.581 250.354 368.347 248.45 366.681C245.209 354.721 240.209 344.586 232.693 334.388C238.324 345.322 241.617 355.774 242.856 367.77C238.71 374.115 234.998 381.411 234.336 388.822C233.193 394.196 234.555 398.667 235.622 402.297C236.906 405.97 238.854 409.011 239.79 410.76C241.691 410.246 245.088 409.553 248.765 407.004C252.629 404.554 255.854 399.801 257.33 392.328Z" fill="#749BC2" fill-opacity="0.5"/>
<path d="M290.017 424.365C293.144 421.024 295.07 415.614 294.622 408.008C294.058 404.265 293.089 400.854 291.812 397.918C290.229 395.053 288.437 392.63 286.626 390.652C284.404 388.193 281.847 386.549 279.586 385.415C273.445 374.652 266.06 366.098 256.224 358.114C264.419 367.284 270.234 376.574 274.445 387.874C272.025 395.057 270.265 403.052 271.485 410.393C271.728 415.88 274.171 419.864 276.115 423.112C278.28 426.345 280.929 428.796 282.274 430.256C283.985 429.281 287.1 427.758 290.017 424.365Z" fill="#749BC2" fill-opacity="0.5"/>
<path d="M301.865 348.531C301.282 348.145 300.601 347.855 299.827 347.702C299.048 347.517 298.167 347.401 297.181 347.489C293.232 347.785 283.155 349.412 273.345 348.092C281.048 355.436 292.969 357.93 297.827 357.554C299.038 357.452 300.088 357.233 300.953 356.853C301.815 356.438 302.498 355.931 303.003 355.371C304.017 354.251 304.319 352.926 304.07 351.691C303.819 350.456 303.03 349.304 301.865 348.531Z" fill="#749BC2" fill-opacity="0.5"/>
<path d="M317.962 370.624C319.176 370.524 320.226 370.303 321.091 369.923C321.952 369.51 322.634 369.001 323.141 368.441C324.155 367.321 324.456 365.996 324.208 364.76C323.957 363.525 323.168 362.374 322.003 361.603C321.418 361.217 320.738 360.925 319.965 360.773C319.186 360.586 318.305 360.473 317.318 360.559C313.369 360.857 303.293 362.482 293.482 361.162C301.186 368.508 313.107 371 317.962 370.624Z" fill="#749BC2" fill-opacity="0.5"/>
<path d="M413.919 347.479C408.228 344.341 402.754 342.081 396.195 341.334C389.355 340.42 383.056 340.742 376.598 342.534C370.286 344.318 363.99 347.131 358.858 351.736C353.662 356.342 350.125 362.063 347.372 368.467C345.111 374.828 344.236 381.632 344.987 388.397C347.352 401.51 355.456 414.175 369.432 417.672C375.494 419.749 382.095 420.011 388.264 418.639C391.224 417.877 394.055 416.693 396.661 415.119C399.66 413.149 401.904 411.172 403.75 408.873C411.258 399.76 412.879 387.809 409.12 378.313C404.954 368.414 396.283 363.715 388.378 363.218C380.321 362.437 373.886 367.341 371.461 371.965C368.868 376.662 368.821 381.05 369.626 383.626C370.352 386.224 371.253 387.365 371.157 387.395C371.251 387.383 370.611 386.026 370.466 383.506C370.176 380.992 371.278 377.201 374.025 373.723C376.782 370.303 381.972 367.795 387.632 369.154C390.4 369.763 393.294 371.079 395.602 373.267C396.616 374.324 397.503 375.101 398.748 376.999C399.488 378.075 400.179 379.775 400.649 381.278C402.37 387.633 400.224 395.809 395.009 401.14C393.758 402.516 392.117 403.53 391.001 404.236C390.232 404.596 389.462 404.956 388.695 405.318C388.583 405.373 389.276 405.034 388.943 405.185C387.794 405.435 386.645 405.723 385.519 406.054C381.823 406.379 377.853 406.295 374.053 404.703C368.659 403.319 364.064 398.08 361.646 393.242C362.361 394.497 361.828 393.538 361.979 393.794C361.17 391.433 360.448 389.01 359.972 386.568C359.62 382.396 360.231 378.034 361.732 373.937C362.739 371.642 363.949 369.457 365.356 367.384C366.425 366.237 367.494 365.09 368.563 363.942L369.109 363.525C375.441 357.822 385.378 355.118 393.875 356.235C395.526 356.211 398.329 357.037 400.853 357.648C402.934 358.372 404.921 359.24 406.914 360.191C410.961 362.221 414.68 365.001 417.813 368.302C431.643 381.842 430.769 403.761 444.523 417.145C450.555 424.14 457.889 428.122 464.191 431.288C475.039 435.211 485.372 437.741 497.019 437.798C486.265 435.409 476.652 431.209 466.99 426.035C461.687 422.29 455.845 417.847 451.496 411.557C438.798 396.455 442.279 373.93 427.89 358.976C424.033 354.516 419.324 350.565 413.919 347.479Z" fill="#749BC2" fill-opacity="0.5"/>
<path d="M225.663 385.523C223.952 389.738 221.898 393.714 219.578 397.314C217.239 400.905 214.701 404.161 212.049 406.994C204.629 414.878 194.707 421.906 183.823 423.719C191.97 405.312 200.059 387.259 204.065 367.394C207.822 347.485 210.146 332.34 206.438 308.281C207.685 310.949 209.098 314.25 210.441 318.126C212.338 323.483 214.006 329.912 215.138 336.87C215.616 340.363 216.072 343.977 216.148 347.666C216.271 349.506 216.179 351.363 216.191 353.223C216.111 355.082 216.021 356.948 215.854 358.801C215.445 362.505 214.942 366.198 214.024 369.737C213.807 370.622 213.589 371.505 213.374 372.383C213.116 373.248 212.859 374.109 212.603 374.967C212.133 376.687 211.555 378.354 210.983 379.99C210.5 381.656 209.826 383.225 209.255 384.795C208.703 386.372 208.059 387.876 207.428 389.343C206.808 390.812 206.224 392.258 205.515 393.587C204.862 394.946 204.261 396.279 203.624 397.53C202.234 399.957 201.15 402.348 199.92 404.261C198.736 406.221 197.814 408.008 196.858 409.41C195.045 412.246 194.086 413.93 194.086 413.93L194.513 414.277C194.513 414.277 195.969 413 198.387 410.657C199.634 409.533 200.95 407.922 202.534 406.134C203.344 405.25 204.133 404.253 204.912 403.176C205.711 402.107 206.557 400.984 207.405 399.783C208.987 397.318 210.764 394.654 212.242 391.609C212.632 390.858 213.027 390.098 213.427 389.327C213.795 388.54 214.12 387.721 214.474 386.905C215.189 385.276 215.864 383.586 216.416 381.819C216.978 380.055 217.571 378.269 217.955 376.4C218.169 375.474 218.384 374.54 218.599 373.604C218.758 372.654 218.918 371.701 219.077 370.744C219.739 366.924 220.075 362.998 220.248 359.083C220.316 357.125 220.306 355.166 220.283 353.219C220.169 351.274 220.156 349.335 219.927 347.425C219.637 343.593 218.965 339.871 218.276 336.298C217.472 332.745 216.649 329.325 215.567 326.174C214.543 323.007 213.409 320.076 212.268 317.416C210.831 314.062 209.404 311.197 208.09 308.778C222.869 320.563 230.52 339.875 230.794 358.474C230.806 363.033 230.399 367.686 229.551 372.259C228.633 376.814 227.37 381.304 225.663 385.523Z" fill="#749BC2" fill-opacity="0.5"/>
</g>
</svg>
