<svg width="6" height="25" viewBox="0 0 6 25" fill="none" xmlns="http://www.w3.org/2000/svg">
<path d="M3 24.6667C4.47276 24.6667 5.66667 23.4728 5.66667 22C5.66667 20.5272 4.47276 19.3333 3 19.3333C1.52724 19.3333 0.333333 20.5272 0.333333 22C0.333333 23.4728 1.52724 24.6667 3 24.6667ZM3 5.66667C4.47276 5.66667 5.66667 4.47276 5.66667 3C5.66667 1.52724 4.47276 0.333333 3 0.333333C1.52724 0.333333 0.333333 1.52724 0.333333 3C0.333333 4.47276 1.52724 5.66667 3 5.66667ZM3.5 22L3.5 3H2.5L2.5 22H3.5Z" fill="#4682A9"/>
</svg>
