<svg width="49" height="47" viewBox="0 0 49 47" fill="none" xmlns="http://www.w3.org/2000/svg">
<path d="M33.6603 14.928L33.6603 19.7013" stroke="#3C6D8D" stroke-width="4" stroke-linecap="round" stroke-linejoin="round"/>
<path d="M33.6565 9.13419C33.4169 9.13419 33.2228 8.93829 33.2228 8.69669C33.2228 8.45505 33.4169 8.25919 33.6565 8.25919" stroke="#3C6D8D" stroke-width="4" stroke-linecap="round" stroke-linejoin="round"/>
<path d="M33.6641 9.13419C33.9036 9.13419 34.0979 8.93829 34.0979 8.69669C34.0979 8.45505 33.9036 8.25919 33.6641 8.25919" stroke="#3C6D8D" stroke-width="4" stroke-linecap="round" stroke-linejoin="round"/>
<path d="M2.00427 44.8399H44.0302" stroke="#3C6D8D" stroke-width="4" stroke-linecap="round" stroke-linejoin="round"/>
<path d="M12.7539 30.5056C16.502 30.5056 19.5404 27.4672 19.5404 23.7191C19.5404 19.971 16.502 16.9326 12.7539 16.9326C9.00583 16.9326 5.96741 19.971 5.96741 23.7191C5.96741 27.4672 9.00583 30.5056 12.7539 30.5056Z" stroke="#3C6D8D" stroke-width="4" stroke-linecap="round" stroke-linejoin="round"/>
<path d="M2 44.8455V41.2611C2 35.3223 6.81429 30.508 12.7531 30.508C18.6918 30.508 23.5061 35.3223 23.5061 41.2611V44.8455" stroke="#3C6D8D" stroke-width="4" stroke-linecap="round" stroke-linejoin="round"/>
<path d="M24.8831 23.3234C27.1263 25.5209 30.1982 26.8758 33.5865 26.8758C40.4557 26.8758 46.0245 21.3071 46.0245 14.4379C46.0245 7.56862 40.4557 2 33.5865 2C26.9252 2 21.4869 7.23654 21.1637 13.8176" stroke="#3C6D8D" stroke-width="4" stroke-linecap="round" stroke-linejoin="round"/>
</svg>
