<svg width="79" height="79" viewBox="0 0 79 79" fill="none" xmlns="http://www.w3.org/2000/svg">
<circle cx="39.5" cy="39.5" r="39.5" fill="#4682A9"/>
<path d="M39.9999 44.2857C47.298 44.2857 53.2142 38.3695 53.2142 31.0714C53.2142 23.7734 47.298 17.8571 39.9999 17.8571C32.7019 17.8571 26.7856 23.7734 26.7856 31.0714C26.7856 38.3695 32.7019 44.2857 39.9999 44.2857Z" stroke="white" stroke-width="2" stroke-linecap="round" stroke-linejoin="round"/>
<path d="M17.4299 64.9C19.7886 61.0282 23.1037 57.8283 27.0563 55.6083C31.009 53.3876 35.4663 52.2214 39.9999 52.2214C44.5335 52.2214 48.9909 53.3876 52.9435 55.6083C56.8963 57.8283 60.211 61.0282 62.57 64.9" stroke="white" stroke-width="2" stroke-linecap="round" stroke-linejoin="round"/>
<path d="M40 73.3571C58.9751 73.3571 74.3571 57.9752 74.3571 39C74.3571 20.0251 58.9751 4.64285 40 4.64285C21.025 4.64285 5.64282 20.0251 5.64282 39C5.64282 57.9752 21.025 73.3571 40 73.3571Z" stroke="white" stroke-width="2" stroke-linecap="round" stroke-linejoin="round"/>
</svg>
