<svg width="48" height="48" viewBox="0 0 48 48" fill="none" xmlns="http://www.w3.org/2000/svg">
<path d="M26.7991 3.82642C26.5174 3.27651 26.0894 2.81502 25.5622 2.49277C25.035 2.17052 24.4291 2 23.8113 2C23.1934 2 22.5875 2.17052 22.0603 2.49277C21.5332 2.81502 21.1051 3.27651 20.8234 3.82642L2.35913 40.755C2.1016 41.266 1.97899 41.8343 2.00294 42.4064C2.02689 42.9781 2.19661 43.534 2.49598 44.0218C2.79534 44.5096 3.21441 44.9128 3.71341 45.1928C4.21238 45.4731 4.77471 45.6212 5.347 45.6228H42.2755C42.8479 45.6212 43.4102 45.4731 43.9091 45.1928C44.4083 44.9128 44.8272 44.5096 45.1267 44.0218C45.4258 43.534 45.5957 42.9781 45.6195 42.4064C45.6437 41.8343 45.5208 41.266 45.2633 40.755L26.7991 3.82642Z" stroke="#3C6D8D" stroke-width="4" stroke-linecap="round" stroke-linejoin="round"/>
<path d="M23.8112 17.0875V27.9982" stroke="#3C6D8D" stroke-width="4" stroke-linecap="round" stroke-linejoin="round"/>
<path d="M23.8112 37.2303C23.3477 37.2303 22.9719 36.8547 22.9719 36.391C22.9719 35.9274 23.3477 35.5518 23.8112 35.5518" stroke="#3C6D8D" stroke-width="4" stroke-linecap="round" stroke-linejoin="round"/>
<path d="M23.8112 37.2303C24.2747 37.2303 24.6504 36.8547 24.6504 36.391C24.6504 35.9274 24.2747 35.5518 23.8112 35.5518" stroke="#3C6D8D" stroke-width="4" stroke-linecap="round" stroke-linejoin="round"/>
</svg>
